<svg width="211" height="210" viewBox="0 0 211 210" fill="none" xmlns="http://www.w3.org/2000/svg">
<path d="M6.38022 204.243C7.27184 203.24 6.38022 198.615 6.38022 196.99C6.38022 194.583 6.82129 191.961 6.82129 189.442C6.82129 181.345 7.00524 173.228 6.82129 165.134C6.4448 148.568 5.93912 131.797 5.93912 115.242C5.93912 106.506 5.05697 97.7557 5.05697 88.949C5.05697 82.4258 4.22782 76.142 4.7139 69.6149C5.20868 62.9709 3.73373 56.4222 3.73373 49.9623C3.73373 44.2682 2.84151 39.0754 3.51318 33.2992C4.10821 28.1821 2.10423 22.3453 3.51318 17.2733C4.66702 13.1196 3.12899 0.577089 5.05697 4.43289" stroke="#6A30A5" stroke-width="5" stroke-linecap="round"/>
<path d="M5.93921 3.99175C8.16366 4.2698 10.7091 4.12384 13.2416 4.53085C18.2042 5.32843 23.1443 3.5076 28.2383 4.08977C30.9722 4.40221 33.418 4.03934 36.1778 3.99175C38.55 3.95085 40.8616 4.68005 43.2351 4.33481C45.4931 4.00638 47.4526 4.26604 49.7043 4.23679C52.1104 4.20555 54.3336 2.77594 56.7616 3.2076C60.5149 3.87488 64.4401 2.50253 68.2297 3.2076C72.7857 4.05525 77.1791 4.43283 81.8053 4.43283C93.4737 4.43283 105.062 4.6402 116.749 4.87392C146.62 5.47133 176.856 4.43283 206.631 4.43283" stroke="#6A30A5" stroke-width="5" stroke-linecap="round"/>
<path d="M206.631 3.55078C206.631 9.79815 206.19 15.9176 206.19 22.0762C206.19 31.2781 203.868 40.3949 205.21 49.6193C205.86 54.0871 204.426 58.9247 204.426 63.4398C204.426 67.8588 204.867 72.2206 204.867 76.6723C204.867 87.443 204.867 98.1754 204.867 108.969C204.867 118.263 204.652 127.4 205.284 136.561C205.653 141.919 206.631 147.236 206.631 152.636C206.631 158.052 205.877 163.45 206.215 168.858C206.924 180.199 204.867 214.282 204.867 202.92" stroke="#6A30A5" stroke-width="5" stroke-linecap="round"/>
<path d="M7.70348 205.125C6.09147 203.312 7.88626 204.499 9.12474 204.145C11.976 203.331 15.2841 202.92 18.2649 202.92C24.1522 202.92 29.9463 205.125 35.9572 205.125C55.4108 205.125 74.598 201.61 94.2535 202.503C118.087 203.587 141.874 204.318 165.709 204.684C170.688 204.761 175.819 204.894 180.803 205.15C184.941 205.362 189.349 204.793 193.399 205.468C195.917 205.888 206.395 203.976 207.513 207.331" stroke="#6A30A5" stroke-width="5" stroke-linecap="round"/>
<path d="M83.1285 175.573C80.6848 177.745 74.5795 173.691 72.1014 172.485C69.8443 171.387 67.5925 170.181 65.8283 168.417C63.418 166.007 60.329 164.791 57.8888 162.438C50.0481 154.877 43.0745 147.401 39.5594 136.855C37.6065 130.997 33.7932 126.167 32.9432 119.898C32.1254 113.867 31.963 107.668 31.963 101.569C31.963 94.7811 32.8584 88.3867 36.4718 82.5044C39.8904 76.9392 41.9118 70.4605 44.3378 64.3955C45.6098 61.2156 48.062 58.956 50.4884 56.5296C51.644 55.374 54.3035 52.2093 55.6099 51.6287C62.3235 48.6449 66.6389 42.1633 73.8658 40.3566C76.0315 39.8151 78.3941 38.2441 80.5065 37.2935C83.266 36.0518 86.0841 36.0607 88.8135 34.696C89.8405 34.1826 91.0577 34.6606 92.2197 34.2059C93.7441 33.6094 95.154 33.1032 96.802 33.1032C99.1639 33.1032 102.033 33.4753 104.349 33.0542C106.567 32.6511 107.779 31.0911 110.181 31.976C111.127 32.3245 112.127 32.2211 113.122 32.2211C115.516 32.2211 117.979 32.0539 120.375 32.2456C122.873 32.4454 126.312 33.0818 128.56 34.2059C131.115 35.4834 134.426 35.7058 136.72 37.2935C138.867 38.7802 140.984 40.4941 143.312 41.7043C146.343 43.2807 147.772 45.2093 150.173 47.4384C152.696 49.7817 153.997 53.3821 156.814 55.3533C159.409 57.1698 160.87 59.0421 163.062 61.2344C180.437 78.6092 181.363 105.193 175.216 127.936C174.374 131.054 172.973 134.075 172.129 137.198C171.209 140.603 168.215 142.97 166.493 145.922C163.642 150.81 160.019 157.329 154.829 160.135C152.027 161.649 148.548 162.943 146.546 165.428C145.303 166.971 140.963 170.051 139.146 170.623C136.857 171.342 135.389 173.598 133.069 174.494C131.313 175.173 129.406 174.735 127.678 175.352C121.03 177.726 125.472 155.61 125.472 152.832C125.472 147.236 124.388 139.446 120.277 135.336C118.344 133.403 120.317 133.688 121.944 134.013C123.474 134.319 125.658 133.436 126.992 132.788C128.727 131.945 131.512 131.649 133.412 131.121C135.322 130.591 137.199 129.718 138.95 128.818C143.05 126.709 146.882 122.157 148.948 118.232C151.099 114.145 150.961 109.748 152.158 105.441C153.204 101.676 151.623 97.9434 150.614 94.4136C149.766 91.4465 149.293 88.3361 147.33 85.8125C145.058 82.8914 147.085 80.9164 147.085 77.2604C147.085 73.2875 147.217 70.0211 146.669 66.1844C146.172 62.7108 144.432 62.5837 142.013 63.1213C138.114 63.9877 131.719 65.6719 128.78 68.6103C126.399 70.9916 124.069 72.4816 120.62 71.6979C115.494 70.5329 110.196 71.4773 105.085 71.4773C101.937 71.4773 98.8132 72.3595 95.5768 72.3595C94.2538 72.3595 89.5517 73.1659 88.7645 72.4575C87.0954 70.9554 84.4966 71.1176 82.6874 69.811C81.5679 69.0025 79.3475 67.562 77.9335 67.5076C74.7064 67.3835 71.5375 65.0355 68.5728 64.8611C66.9665 64.7666 67.2495 64.5577 67.2495 66.6254C67.2495 68.375 66.8084 70.0937 66.8084 71.9184C66.8084 76.0352 66.8084 80.1519 66.8084 84.2687C66.8084 85.6435 66.0349 85.8141 65.3872 86.9152C64.4111 88.5747 63.9934 90.2636 63.3778 92.1102C61.9456 96.4066 61.1705 100.684 59.9717 105C57.9042 112.443 65.9132 122.286 70.1656 127.519C72.2139 130.04 77.7479 131.922 80.9476 132.322C82.2132 132.48 90.0206 133.766 88.8625 135.214C87.3193 137.143 87.5393 139.739 87.5393 141.83C87.5393 142.312 80.6638 142.05 79.4038 142.05C76.5943 142.05 71.7264 140.061 69.6755 138.326C68.1207 137.01 67.1662 136.233 65.7058 134.773C64.4361 133.503 63.3378 131.785 61.6135 131.121C57.8906 129.69 51.1171 128.207 51.8117 134.111C52.1821 137.26 57.4536 139.855 59.7512 141.168C61.6497 142.253 63.6132 144.537 64.9461 146.265C65.7139 147.261 66.8239 150.575 67.7151 150.872C69.6424 151.514 71.0337 152.363 73.0081 152.857C74.7823 153.3 76.9771 153.119 78.4726 153.935C79.9131 154.721 81.3143 153.692 82.9079 154.401C82.9431 154.416 84.8928 156.765 84.8928 156.386C84.8928 149.843 87.8186 170.162 84.8928 176.014" stroke="#6A30A5" stroke-width="5" stroke-linecap="round"/>
</svg>
