<svg width="209" height="210" viewBox="0 0 209 210" fill="none" xmlns="http://www.w3.org/2000/svg">
<path d="M4.29066 5.25874C3.03957 -6.00129 4.29066 27.9174 4.29066 39.2467C4.29066 56.3946 3.86044 73.5944 3.86044 90.874C3.86044 110.772 3.43022 130.612 3.43022 150.437C3.43022 161.345 3.43022 172.332 3.43022 183.277C3.43022 187.521 3.43022 191.604 3.43022 195.849C3.43022 196.962 2.68363 203.866 3.86044 204.454" stroke="#6A30A5" stroke-width="5" stroke-linecap="round"/>
<path d="M3 202.733C4.69809 202.946 6.46561 204.024 8.40175 204.024C11.0313 204.024 14.2039 203.98 16.7673 204.55C20.1184 205.295 24.0711 204.024 27.523 204.024C31.7615 204.024 36 204.024 40.2386 204.024C47.7035 204.024 54.8749 203.903 62.2758 204.024C72.2772 204.188 82.2626 205.267 92.2483 205.267C102.95 205.267 113.612 206.175 124.372 206.175C135.874 206.175 146.866 207.536 158.312 205.841C168.408 204.345 179.417 204.024 189.647 204.024C191.787 204.024 204.346 205.289 204.346 204.024" stroke="#6A30A5" stroke-width="5" stroke-linecap="round"/>
<path d="M203.916 5.68891C203.916 2.52513 203.671 12.0477 204.131 15.1778C204.816 19.8316 204.777 24.857 204.777 29.5665C204.777 37.7286 205.207 45.8338 205.207 54.0178C205.207 69.6093 203.486 84.9473 203.486 100.53C203.486 108.523 203.916 116.449 203.916 124.432C203.916 129.413 204.346 134.342 204.346 139.322C204.346 144.45 203.479 149.696 204.131 154.787C205.401 164.688 204.777 175.527 204.777 185.524C204.777 187.897 204.037 202.363 205.637 203.163" stroke="#6A30A5" stroke-width="5" stroke-linecap="round"/>
<path d="M4.29071 3.53809C10.332 3.53809 16.3224 4.39855 22.3603 4.39855C26.867 4.39855 30.7794 5.63348 35.3627 5.16339C39.7862 4.70969 44.1477 4.39855 48.6041 4.39855C68.9543 4.39855 89.5568 6.54542 109.935 4.92437C119.54 4.16039 129.47 6.82598 139.095 6.02385C147.773 5.30075 156.438 5.39872 165.1 5.259C177.936 5.05197 191.169 4.39855 203.486 4.39855" stroke="#6A30A5" stroke-width="5" stroke-linecap="round"/>
<path d="M44.3018 53.8748C39.9667 49.9732 47.2034 57.0941 48.15 58.3683C51.0802 62.3128 54.5252 64.3971 58.4993 67.1163C66.1141 72.3263 73.9349 77.7145 83.1179 79.5928C89.1542 80.8275 94.8201 81.4094 100.566 81.4094C101.971 81.4094 100.7 80.3448 100.662 79.3538C100.596 77.6346 101.308 75.8098 101.498 74.0955C101.874 70.7134 102.583 68.0743 103.912 65.0368C106.733 58.5904 111.005 52.4128 118.086 50.8393C124.267 49.4657 129.374 44.4937 136.275 46.4653C141.119 47.8494 146.415 47.1716 150.568 50.8632C151.824 51.98 153.339 53.0915 154.249 54.305C154.64 54.8263 158.985 53.4232 159.818 52.7753C162.042 51.0454 164.481 50.2646 166.917 49.0467C168.863 48.0736 170.311 46.5821 172.294 45.7005C174.219 44.845 172.01 50.1855 171.649 50.7676C169.904 53.5785 168.703 56.6485 166.678 59.2526C164.911 61.5239 162.26 62.1649 160.559 63.8656C158.979 65.4458 165.27 63.8703 167.156 62.6706C168.575 61.7674 171.697 60.8514 173.37 60.7585C175.659 60.6313 177.486 58.3524 176.286 61.9535C174.762 66.5241 168.911 71.3308 165.291 74.6213C163.526 76.2259 160.227 76.7736 159.627 79.4733C159.12 81.7542 159.361 84.7147 159.149 87.0501C158.546 93.6786 156.681 100.026 154.87 106.363C152.513 114.613 147.041 121.59 143.254 129.165C139.915 135.842 133.698 143.63 127.431 147.76C124.02 150.008 120.696 152.49 117.01 154.333C113.337 156.17 110.227 160.155 106.255 161.336C102.483 162.457 98.5778 163.982 94.6385 164.419C91.2345 164.798 86.7777 166.118 83.4525 165.399C79.9633 164.645 75.3921 164.432 71.8364 164.037C67.5553 163.561 63.0894 162.542 58.9296 161.408C55.0465 160.349 51.1417 159.52 47.5047 157.751C44.097 156.093 41.1237 153.625 38.0396 151.943C37.2668 151.521 33.1283 148.694 35.6973 149.911C38.9749 151.464 43.2487 151.345 46.7876 151.345C50.9867 151.345 55.3107 148.994 59.3598 148.095C63.5971 147.153 66.7468 144.357 70.7847 142.932C73.2902 142.048 74.8763 139.949 77.1903 139.108C78.1767 138.749 79.075 138.141 80.0107 137.674C80.7425 137.308 76.8756 137.939 76.5689 137.984C68.2632 139.206 61.8211 135.774 55.5356 130.886C53.0033 128.916 50.9081 126.306 48.6041 124.002C47.6735 123.071 47.0273 122.033 46.1184 121.086C45.0722 119.996 47.9846 121.327 48.3651 121.397C51.2668 121.924 55.2625 120.968 58.0691 120.225C60.1993 119.662 62.4713 118.634 60.1725 117.74C56.0533 116.138 52.2937 115.215 49.0343 111.955C47.3862 110.307 45.6773 108.809 43.9194 107.247C42.3085 105.815 42.091 103.687 40.7644 102.156C38.4955 99.5379 37.9402 95.0033 36.7729 91.7348C36.281 90.3577 35.6405 89.0624 35.2432 87.6716C34.7144 85.821 36.2289 88.1644 37.0836 88.7232C39.179 90.0933 41.7827 91.8559 44.3497 92.1411C46.0175 92.3265 47.4042 91.649 49.0343 91.7348C50.7398 91.8246 49.8964 91.3062 48.6041 90.0139C46.2099 87.6197 42.8125 86.1874 41.8161 82.7C40.7254 78.8827 39.0385 75.8563 38.7328 71.7292C38.2572 65.3084 41.2903 46.1457 41.2903 52.5841" stroke="#6A30A5" stroke-width="5" stroke-linecap="round"/>
</svg>
