<svg width="209" height="210" viewBox="0 0 209 210" fill="none" xmlns="http://www.w3.org/2000/svg">
<path d="M6.08758 6.3335C5.23954 6.4395 5.59207 24.2698 5.30344 26.0841C4.85501 28.9031 6.08758 32.3428 6.08758 35.2243C6.08758 38.4344 6.44027 41.5247 6.52868 44.7076C6.69195 50.5857 8.79524 57.4737 7.7539 63.331C6.14686 72.3704 6.55989 82.5032 6.11209 91.6828C5.56695 102.858 6.88419 113.985 6.11209 125.18C5.25673 137.583 5.65864 150.032 5.18093 162.452C4.78175 172.83 4.32324 183.119 4.32324 193.524C4.32324 195.175 4.49978 206.496 5.20543 206.143" stroke="#6A30A5" stroke-width="5" stroke-linecap="round"/>
<path d="M3 207.026C3.83004 206.933 4.31532 206.075 5.1074 205.8C6.14744 205.44 7.46642 206.114 8.53804 206.143C11.7394 206.23 14.9471 206.584 18.2173 206.584C26.5284 206.584 34.613 207.467 42.8934 207.467C52.0394 207.467 61.2556 207.066 70.3875 206.609C75.307 206.363 80.2447 205.323 85.1392 205.261C90.1216 205.198 95.0407 205.702 99.9889 205.702C118.079 205.702 135.777 204.613 153.874 205.678C163.624 206.251 173.126 206.3 182.863 206.143C189.965 206.029 197.087 205.261 204.133 205.261" stroke="#6A30A5" stroke-width="5" stroke-linecap="round"/>
<path d="M3.44116 5.45117C6.51802 5.27018 9.62953 4.12793 12.9489 4.12793C16.5202 4.12793 19.9618 4.33068 23.5104 4.59353C32.4545 5.25605 41.5867 5.0101 50.5634 5.0101C59.4252 5.0101 68.2781 5.89227 77.1753 5.89227C86.6461 5.89227 96.145 5.45117 105.552 5.45117C124.046 5.45117 142.646 5.89227 161.103 5.89227C165.416 5.89227 169.702 6.33334 174.042 6.33334C178.452 6.33334 182.747 5.45117 187.176 5.45117C190.384 5.45117 193.62 4.61416 196.831 5.10812C199.047 5.44904 202.197 4.8059 204.133 5.45117" stroke="#6A30A5" stroke-width="5" stroke-linecap="round"/>
<path d="M204.133 4.56887C203.013 -3.27167 203.933 20.421 203.276 28.3137C202.701 35.2123 204.469 42.6857 204.574 49.6572C204.709 58.5543 205.456 67.3684 205.456 76.3671C205.456 86.5822 205.456 96.7042 205.456 106.9C205.456 117.95 205.015 128.966 205.015 140.03C205.015 148.774 206.398 157.772 205.113 166.446C203.874 174.815 203.692 183.551 203.692 192.004C203.692 193.948 201.698 205.587 203.692 206.584" stroke="#6A30A5" stroke-width="5" stroke-linecap="round"/>
<path d="M40.064 49.4292C39.6605 49.948 40.7875 51.5029 41.0605 51.9206C43.2662 55.294 47.5062 57.7036 49.0883 61.4432C50.2846 64.2709 53.8213 65.0762 55.6213 67.3671C57.811 70.154 61.8335 71.59 63.6075 74.5921C64.6135 76.2946 66.558 77.4458 67.9397 78.8275C69.9505 80.8382 71.9026 82.8202 73.9467 84.8068C77.1233 87.8939 80.7931 90.7376 83.4693 94.274C84.9353 96.2111 86.8674 97.6921 88.3967 99.5613C89.7505 101.216 91.3292 103.177 93.0058 104.489C95.8584 106.721 98.2239 109.645 100.854 112.087C101.913 113.071 104.076 115.949 105.587 115.949" stroke="#6A30A5" stroke-width="5" stroke-linecap="round"/>
<path d="M106.584 116.198C105.91 115.44 107.258 115.379 107.733 115.16C109.425 114.379 110.467 112.086 111.94 110.952C114.913 108.665 116.662 105.266 119.428 102.869C122.477 100.227 124.885 97.0419 127.968 94.4124C131.051 91.7827 133.799 88.0881 136.494 85.0559C142.396 78.4168 149.245 72.8094 155.553 66.6197C161.134 61.1439 165.842 54.9467 171.36 49.4292" stroke="#6A30A5" stroke-width="5" stroke-linecap="round"/>
<path d="M106.335 126.164C107.421 125.078 109.38 124.173 110.708 123.16C112.829 121.544 114.687 119.525 116.743 117.804C118.409 116.409 119.697 114.888 121.504 113.582C122.236 113.054 123.118 111.714 124.024 111.714" stroke="#6A30A5" stroke-width="5" stroke-linecap="round"/>
<path d="M125.269 112.212C125.589 112.292 125.531 112.697 125.671 112.946C126.04 113.602 127.263 113.802 127.858 114.219C129.369 115.281 130.042 116.38 131.124 117.804C131.97 118.918 132.486 120.298 133.352 121.375C134.351 122.617 135.559 123.527 136.48 124.863C138.112 127.229 140.601 129.237 142.723 131.147C144.87 133.079 146.887 135.325 148.951 137.389C153.78 142.218 158.168 147.353 163 152.185C164.53 153.716 165.623 155.786 167.429 157.057C168.596 157.878 169.67 159.451 170.862 160.047" stroke="#6A30A5" stroke-width="5" stroke-linecap="round"/>
<path d="M88.6458 111.963C83.0746 107.088 97.6837 124.051 103.843 128.157" stroke="#6A30A5" stroke-width="5" stroke-linecap="round"/>
<path d="M38.0709 160.047C39.6517 158.624 41.4972 157.485 43.109 156.061C45.4287 154.011 47.6197 151.792 49.5313 149.334C51.6407 146.622 54.5072 144.725 56.5071 141.86C58.3783 139.179 61.3719 136.746 63.7045 134.413C65.0237 133.094 66.7438 132.15 67.9675 130.759C68.958 129.634 69.7392 128.135 70.8464 127.161C73.4647 124.857 75.5387 122.393 77.933 119.936C79.9125 117.904 82.0508 116.347 83.9123 114.219C84.7053 113.313 86.4187 112.182 86.902 111.216" stroke="#6A30A5" stroke-width="5" stroke-linecap="round"/>
<path d="M31.8424 153.071C33.6988 152.197 34.6316 150.888 36.1331 149.583C38.9191 147.16 41.3386 144.571 43.9394 141.97C46.6046 139.305 48.995 136.379 51.6627 133.749C54.1363 131.31 56.3643 128.288 58.9846 126.053C61.8386 123.619 63.9514 120.436 66.5972 117.79C68.6123 115.775 69.8065 113.017 72.009 111.215C74.7369 108.983 76.5439 105.415 79.4277 103.492" stroke="#6A30A5" stroke-width="5" stroke-linecap="round"/>
<path d="M33.0881 55.9071C32.2076 55.1244 33.609 56.6775 33.7801 56.9037C34.6608 58.0673 35.3834 59.3815 36.3823 60.447C37.5631 61.7065 38.2691 63.049 39.6487 64.1287C40.8255 65.0496 41.7332 66.2149 42.6799 67.3675C44.912 70.0848 47.7466 72.3888 49.6558 75.326C51.2513 77.7807 54.2079 79.2691 56.2579 81.3192C61.0006 86.0619 65.8472 90.6593 70.5834 95.3955C72.2514 97.0635 74.591 97.8498 75.926 99.8523C76.3898 100.548 77.6427 101.984 78.4312 102.247" stroke="#6A30A5" stroke-width="5" stroke-linecap="round"/>
<path d="M130.252 105.735C130.47 103.774 134.099 102.121 135.179 100.696C137.2 98.0314 139.645 95.9052 142.017 93.5821C144.169 91.4743 145.988 89.213 148.245 87.1876C151.204 84.5323 153.995 81.6728 156.91 78.966C158.082 77.8774 159.147 76.7811 160.204 75.5888C161.355 74.2908 162.775 73.7056 163.775 72.2254C165.826 69.1896 168.989 67.3461 171.609 64.8897C173.608 63.0156 177.665 60.4099 178.585 57.6509" stroke="#6A30A5" stroke-width="5" stroke-linecap="round"/>
<path d="M131.249 105.984C131.479 107.826 135.099 108.865 136.328 110.095C137.949 111.716 138.706 113.78 140.702 115.077C143.172 116.683 144.22 119.625 146.46 121.417C147.903 122.571 149.393 123.317 150.778 124.642C152.203 126.005 153.409 127.453 155.014 128.642C156.221 129.536 156.818 130.933 157.962 131.894C159.424 133.124 160.815 134.612 162.197 135.936C164.303 137.953 165.812 140.496 168.066 142.358C170.528 144.392 172.533 146.84 175.097 148.78C176.372 149.745 177.157 151.859 178.585 152.573" stroke="#6A30A5" stroke-width="5" stroke-linecap="round"/>
<path d="M180.08 57.1528C180.835 63.1977 181.076 69.8091 181.076 76.0319C181.076 81.0081 180.827 85.9347 180.827 90.9249C180.827 96.0678 181.325 101.144 181.325 106.288C181.325 111.267 182.041 116.076 181.519 121.098C181.066 125.457 181.851 130.105 181.131 134.33C180.616 137.359 180.227 141.818 180.882 144.849C181.297 146.769 180.555 150.794 181.574 152.324" stroke="#6A30A5" stroke-width="5" stroke-linecap="round"/>
<path d="M41.808 47.6853C46.0978 47.6853 50.5844 47.865 54.9569 47.9345C57.567 47.9759 60.2216 47.8854 62.7909 48.3774C64.2383 48.6545 65.782 48.2806 67.2062 48.0729C68.7062 47.8541 70.099 48.2766 71.5661 48.1282C73.3716 47.9456 74.8475 47.3052 76.6873 47.5607C78.5504 47.8195 80.2022 47.7845 82.0576 47.4915C84.0938 47.17 86.8263 47.2318 88.8397 47.4915C95.6189 48.3663 103.468 48.7848 110.21 47.5746C113.546 46.9759 117.483 47.6853 120.895 47.6853C123.949 47.6853 127.095 47.4591 130.127 47.796C131.718 47.9728 133.537 47.6396 135.124 47.4915C136.467 47.3662 137.774 47.9068 139.11 47.9068C141.755 47.9068 144.402 47.9345 147.069 47.9345C152.494 47.9345 157.882 48.8562 163.373 48.1697C165.438 47.9117 167.508 47.6594 169.602 47.45C170.249 47.3853 172.875 47.477 173.104 47.9345" stroke="#6A30A5" stroke-width="5" stroke-linecap="round"/>
<path d="M31.8425 54.6611C30.3034 56.2002 31.3442 61.5423 31.3442 63.6439C31.3442 65.7427 31.6416 67.7263 31.5933 69.8032C31.5564 71.3906 31.1278 73.3686 31.4688 74.869C32.3653 78.8137 31.767 83.8585 31.5933 87.8518C31.3937 92.4438 30.8459 96.9348 30.8459 101.554C30.8459 110.278 31.5833 118.991 30.8598 127.672C30.5189 131.763 30.8459 136.009 30.8459 140.115C30.8459 143.578 30.3927 147.747 31.3442 151.078" stroke="#6A30A5" stroke-width="5" stroke-linecap="round"/>
<path d="M39.3167 161.292C39.3646 161.676 39.6158 161.257 39.8703 161.486C40.253 161.831 40.7784 162.163 41.3097 162.178C42.9316 162.226 44.4256 162.289 46.0987 162.289C50.8242 162.289 55.5012 163.231 60.2442 163.286C66.4138 163.357 72.4858 163.036 78.6528 163.036C85.9418 163.036 93.4731 163.505 100.715 162.663C104.408 162.233 108.39 162.289 112.106 162.289C115.214 162.289 118.573 161.895 121.629 162.289C123.114 162.481 124.431 161.981 125.92 162.054C127.641 162.138 129.085 162.166 130.792 161.915C133.981 161.446 137.52 161.638 140.716 161.777C146.812 162.042 152.913 161.542 159.014 161.542C162.793 161.542 167.508 161.337 171.111 162.538" stroke="#6A30A5" stroke-width="5" stroke-linecap="round"/>
</svg>
