<svg width="658" height="471" viewBox="0 0 658 471" fill="none" xmlns="http://www.w3.org/2000/svg">
<path d="M5.50627 10.9847C5.50627 -22.5544 6.11793 78.0612 6.11793 111.6C6.11793 126.525 5.50627 141.63 5.50627 156.59C5.50627 176.737 4.94686 196.971 5.50627 217.109C5.96008 233.446 7.3412 249.579 7.3412 266.041C7.3412 290.473 4.283 314.988 4.283 339.438C4.283 363.485 4.283 387.531 4.283 411.578C4.283 423.266 4.89463 434.9 4.89463 446.612C4.89463 449.475 2.4294 466.246 5.50627 467.272" stroke="#6A30A5" stroke-width="5" stroke-linecap="square"/>
<path d="M44.6515 47.0713C43.0955 34.6232 45.4972 72.1472 45.8408 84.6875C47.1714 133.255 42.4905 181.782 43.768 230.327C44.9681 275.932 42.2049 321.241 42.2049 366.826C42.2049 381.839 42.0988 397.705 44.3117 412.563C44.554 414.19 45.0087 424.965 45.2631 424.456" stroke="#6A30A5" stroke-width="5" stroke-linecap="square"/>
<path d="M651.403 9.76138C649.771 -3.30025 651.639 36.0885 652.015 49.2464C652.205 55.9112 654.288 63.5057 653.102 70.1783C652.184 75.3429 652.433 80.8937 653.102 86.081C654.019 93.1842 652.541 100.416 653.102 107.557C654.279 122.514 653.238 138.144 653.238 153.226C653.238 169.72 652.627 186.183 652.627 202.701C652.627 226.111 652.501 249.559 652.015 272.905C651.203 311.851 652.627 350.487 652.627 389.457C652.627 405.817 653.482 422.226 653.85 438.388C653.991 444.62 653.238 450.757 653.238 456.874C653.238 459.103 651.039 463.114 653.238 464.213" stroke="#6A30A5" stroke-width="5" stroke-linecap="square"/>
<path d="M612.87 45.2368C612.364 45.2368 614.093 72.5288 614.093 76.5666C614.093 84.0079 614.093 91.5497 614.093 98.7897C614.093 104.279 615.427 112.198 613.787 117.445C612.748 120.772 613.578 124.946 613.482 128.421C613.347 133.254 612.87 138.105 612.87 143.032C612.87 150.226 613.482 157.465 613.482 164.576C613.482 182.013 612.87 199.514 612.87 216.973C612.87 251.786 613.482 286.884 613.482 321.7C613.482 330.75 613.482 339.8 613.482 348.85C613.482 353.231 612.807 358.398 613.617 362.68C614.269 366.124 614.628 371.114 613.821 374.608C612.759 379.213 615.02 384.809 613.957 389.593C612.829 394.669 613.482 400.293 613.482 405.496C613.482 412.183 612.258 418.97 612.258 425.68" stroke="#6A30A5" stroke-width="5" stroke-linecap="square"/>
<path d="M9.78799 4.25663C5.98276 6.04733 10.7872 2.75316 12.2346 4.56245C13.2655 5.85116 19.2196 4.93176 20.9335 4.86828C31.2632 4.48569 41.9779 5.86353 52.4672 6.09156C58.6959 6.22697 64.3551 7.07727 70.6466 6.73719C74.1194 6.54948 77.9154 6.49429 81.3164 5.78574C85.3266 4.95028 89.8893 6.37789 94.059 5.95564C108.469 4.4964 123.226 8.18481 137.69 7.28087C151.531 6.41581 166.286 7.75577 180.131 8.50417C197.206 9.42715 214.146 8.53815 231.203 8.53815C239.309 8.53815 247.35 7.31485 255.363 7.31485C262.803 7.31485 270.148 7.9265 277.552 7.9265C294.161 7.9265 310.924 6.70321 327.537 6.70321C355.954 6.70321 384.128 10.1382 412.318 8.57213C446.148 6.69275 480.35 9.07638 514.259 8.53815C541.122 8.11175 567.955 7.9265 594.826 7.9265C600.71 7.9265 606.462 7.9265 612.258 7.9265C618.126 7.9265 624.527 8.96344 630.268 8.50417C635.039 8.12246 639.784 8.53815 644.675 8.53815C647.074 8.53815 652.061 9.73106 653.85 8.53815" stroke="#6A30A5" stroke-width="5" stroke-linecap="square"/>
<path d="M41.5938 46.4601C87.3965 46.4601 133.141 46.4601 179.078 46.4601C233.058 46.4601 286.989 45.8485 340.994 45.8485C363.715 45.8485 386.184 45.2368 408.886 45.2368C432.328 45.2368 455.733 46.4601 479.226 46.4601C503.49 46.4601 527.937 47.0718 552.351 47.0718C564.969 47.0718 577.587 47.0718 590.205 47.0718C597.948 47.0718 609.244 48.2806 616.54 45.8485" stroke="#6A30A5" stroke-width="5" stroke-linecap="square"/>
<path d="M7.95312 467.271C7.95312 463.078 127.345 466.161 136.976 467.577C149.755 469.456 163.322 467.271 176.121 467.271C191.162 467.271 205.96 466.876 221.043 467.849C256 470.104 290.984 465.436 326.008 465.436C385.595 465.436 445.221 465.436 504.677 465.436C519.406 465.436 534.1 466.66 548.919 466.66C563.008 466.66 576.857 466.66 590.986 466.66C611.451 466.66 631.994 467.883 652.627 467.883" stroke="#6A30A5" stroke-width="5" stroke-linecap="square"/>
<path d="M45.875 425.68C45.875 425.066 46.813 426.126 47.4041 426.258C48.463 426.493 49.8171 426.332 50.9041 426.291C54.1694 426.171 56.6681 425.79 59.9428 426.258C66.9475 427.258 74.2773 426.903 81.3844 426.903C101.565 426.903 122.102 425.875 142.175 427.481C152.821 428.332 165.358 428.628 175.883 427.039C186.028 425.508 197.732 427.85 207.961 428.126C230.36 428.732 252.893 428.397 275.378 428.738C291.335 428.98 307.234 428.126 323.154 428.126C336.689 428.126 350.29 428.126 363.862 428.126C392.997 428.126 422.188 429.961 451.429 429.961C504.988 429.961 558.618 429.961 612.258 429.961" stroke="#6A30A5" stroke-width="5" stroke-linecap="square"/>
<path d="M3.05989 464.825C2.25107 464.825 9.90019 458.516 9.99186 458.437C14.8048 454.288 17.3438 447.655 22.0209 443.757C25.6051 440.77 32.789 436.845 35.0013 432.748C36.0445 430.816 40.3361 423.414 42.8168 425.068" stroke="#6A30A5" stroke-width="5" stroke-linecap="square"/>
<path d="M4.89453 5.47993C5.07605 4.02775 7.62544 7.59588 8.05469 7.99448C11.2161 10.93 15.2874 13.2435 17.6031 16.9653C21.289 22.889 24.8163 27.11 30.0059 31.7807C35.2363 36.4879 38.9358 41.5618 44.6514 45.8485" stroke="#6A30A5" stroke-width="5" stroke-linecap="square"/>
<path d="M609.2 47.6833C613.858 47.6833 618.041 42.4811 620.345 38.9844C624.044 33.3729 631.239 31.2738 634.583 25.3583C637.343 20.476 642.868 16.5898 647.36 13.4652C649.025 12.3067 651.553 8.37724 652.015 9.76133" stroke="#6A30A5" stroke-width="5" stroke-linecap="square"/>
<path d="M610.423 430.573C608.689 428.622 611.436 431.338 612.258 431.932C614.848 433.802 617.089 435.827 618.986 438.388C622.584 443.245 629.854 445.722 634.142 450.01C639.66 455.528 645.644 462.557 652.627 466.048" stroke="#6A30A5" stroke-width="5" stroke-linecap="square"/>
<path d="M9.86002 11.6728C6.76962 8.58241 11.1552 14.4808 11.9068 15.2323C16.7765 20.1021 19.6354 23.644 22.2738 30.0933C25.7563 38.6058 32.6262 45.622 36.2894 54.298C39.3324 61.5051 42.7223 70.2807 41.9402 78.1023C41.0409 87.0954 35.8239 88.9982 30.2828 94.9655C21.6301 104.284 5.10982 84.976 11.0614 77.7019C13.3168 74.9453 16.3016 69.5321 21.0725 71.9176C25.6671 74.215 23.9581 77.9939 25.077 81.3504" stroke="#6A30A5" stroke-width="5" stroke-linecap="square"/>
<path d="M9.85979 7.66827C4.43833 1.569 21.644 19.0091 26.8565 25.2879C33.0568 32.7565 41.0565 36.1375 49.5484 40.5048C58.9996 45.3654 78.6163 47.4838 86.7454 38.903C93.0017 32.2991 96.1858 11.5441 82.7409 10.8718C77.8235 10.626 71.0526 9.13932 68.5028 14.8763C66.0937 20.297 69.4474 20.43 73.1302 22.8852" stroke="#6A30A5" stroke-width="5" stroke-linecap="square"/>
<path d="M9.85986 460.973C10.489 455.311 19.3037 449.161 22.8521 444.599C28.4759 437.368 38.6182 433.423 46.7899 429.338C56.8614 424.302 80.783 426.334 88.7922 435.344C95.3571 442.73 91.0617 458.115 81.9401 461.373C77.3355 463.018 69.7663 461.613 66.3227 458.17C62.3194 454.166 60.5024 447.358 68.325 447.358" stroke="#6A30A5" stroke-width="5" stroke-linecap="square"/>
<path d="M5.85547 456.968C6.33469 452.655 18.3108 447.573 21.4728 443.709C26.419 437.664 29.0747 430.158 33.9312 424.087C40.2407 416.2 44.5481 395.085 35.9334 387.29C31.3049 383.103 26.5152 381.035 20.2715 381.729C11.8334 382.666 14.29 388.75 9.50396 392.852C7.51673 394.556 9.21523 400.464 11.4617 401.529C15.4149 403.401 19.6308 402.187 23.4751 400.906" stroke="#6A30A5" stroke-width="5" stroke-linecap="square"/>
<path d="M653.776 460.172C653.776 464.843 640.54 447.999 639.36 446.557C633.246 439.083 629.093 430.46 622.542 423.331C615.977 416.187 611.624 394.841 622.542 389.382C633.046 384.13 644.864 386.797 650.973 397.658C653.39 401.955 654.654 403.971 652.353 408.114C649.552 413.155 640.662 408.548 636.958 407.313" stroke="#6A30A5" stroke-width="5" stroke-linecap="square"/>
<path d="M650.573 15.6771C650.573 14.7709 646.41 18.0319 645.634 18.6137C642.15 21.2265 638.221 24.6517 635.534 28.1354C630.706 34.3936 627.424 41.6386 622.942 48.1132C618.343 54.7567 615.422 68.7248 618.715 76.5448C621.674 83.5717 623.977 86.9971 629.572 92.3846C634.099 96.7442 642.714 99.5314 647.725 94.5204C657.875 84.3709 636.958 66.0931 636.958 82.1511" stroke="#6A30A5" stroke-width="5" stroke-linecap="square"/>
<path d="M648.17 6.86719C646.646 7.05777 648.288 9.12119 646.835 10.0708C643.893 11.9947 641.622 14.7667 638.56 16.4779C632.384 19.9288 625.101 25.9302 619.961 30.716C609.106 40.822 589.92 49.9558 575.69 40.1042C569.466 35.7954 569.476 29.3218 570.528 22.4846C571.728 14.6847 577.851 11.6994 584.9 10.9161C595.302 9.76035 602.761 28.4913 591.307 28.4913" stroke="#6A30A5" stroke-width="5" stroke-linecap="square"/>
<path d="M645.767 467.38C641.44 462.512 638.271 456.958 632.553 453.32C625.35 448.736 615.532 443.21 609.371 437.391C605.148 433.402 595.485 431.34 589.661 431.34C580.715 431.34 573.365 432.757 567.681 439.705C561.71 447.001 565.885 460.828 574.132 464.577C578.615 466.614 588.439 464.745 591.129 460.172C592.756 457.405 590.506 447.351 590.506 450.561" stroke="#6A30A5" stroke-width="5" stroke-linecap="square"/>
<path d="M37.8912 389.693C37.1968 382.75 30.8015 376.998 26.0558 372.252C20.5893 366.785 20.3552 357.83 14.6208 352.096C4.81252 342.288 4.93913 329.301 16.2671 320.639C23.8381 314.849 36.1973 320.119 39.493 329.182C42.5798 337.67 34.5602 338.928 28.2805 336.835" stroke="#6A30A5" stroke-width="5" stroke-linecap="square"/>
<path d="M617.736 392.096C617.736 383.509 620.968 379.306 627.97 374.477C633.215 370.859 638.401 361.213 641.007 355.567C643.969 349.149 644.675 341.782 647.547 335.678C649.956 330.56 651.887 320.636 646.568 316.456C638.207 309.887 622.655 307.16 619.16 319.393C616.595 328.37 625.797 338.669 634.555 332.83" stroke="#6A30A5" stroke-width="5" stroke-linecap="square"/>
<path d="M7.45703 328.025C8.07653 322.45 9.4319 318.273 13.0633 313.787C16.5705 309.454 20.9052 303.292 25.0767 299.816C31.5864 294.391 37.4482 287.834 41.0945 280.327C42.9614 276.484 43.2589 266.919 39.8931 263.553C34.4388 258.099 21.3931 250.67 15.11 258.748C8.64891 267.055 15.3513 276.31 24.2757 270.361" stroke="#6A30A5" stroke-width="5" stroke-linecap="square"/>
<path d="M650.573 319.215C648.659 318.976 647.831 314.617 646.835 313.253C644.243 309.7 641.012 306.704 638.382 303.197C632.903 295.893 629.174 287.643 622.72 280.95C618.392 276.462 609.148 254.63 619.783 252.696C625.387 251.677 629.996 251.94 635.4 251.94C640.752 251.94 642.672 255.859 646.524 258.748C648.145 259.963 652.691 268.345 650.172 270.361C645.86 273.811 644.126 272.203 640.161 269.56" stroke="#6A30A5" stroke-width="5" stroke-linecap="square"/>
<path d="M41.8956 76.5449C41.3404 76.5449 38.1884 90.4426 35.8889 93.7641C31.6502 99.8867 26.241 106.202 22.6742 112.585C18.6872 119.72 12.1768 124.733 7.90223 131.45C4.66612 136.536 7.70044 143.326 8.25819 148.625C8.60772 151.946 17.9626 159.617 21.0279 160.639C28.0971 162.995 30.6237 163.779 37.0903 158.236C46.0807 150.53 32.702 138.18 26.6787 150.227" stroke="#6A30A5" stroke-width="5" stroke-linecap="square"/>
<path d="M12.2623 144.621C8.16934 149.225 15.3743 165.667 18.269 169.849C22.615 176.126 27.3425 181.975 31.0833 188.625C36.5253 198.3 45.3805 210.157 38.6917 221.862C36.5262 225.652 29.2018 229.515 24.8986 229.515C19.4498 229.515 13.3445 221.744 10.6605 217.324C6.58454 210.61 15.8317 206.968 20.2712 204.865C24.4593 202.882 27.061 212.314 24.2757 215.099" stroke="#6A30A5" stroke-width="5" stroke-linecap="square"/>
<path d="M619.338 73.3411C616.965 70.6714 619.271 78.2755 619.338 80.1042C619.519 84.9675 620.657 90.6522 623.966 94.3423C628.206 99.0721 633.287 106.844 636.157 112.585C641.52 123.311 653.505 136.849 649.594 150.049C648.584 153.458 640.876 157.718 637.581 158.859C631.626 160.92 626.846 157.507 622.542 153.43C618.586 149.682 615.857 143.219 618.359 138.213C621.034 132.864 628.148 137.415 628.148 142.218" stroke="#6A30A5" stroke-width="5" stroke-linecap="square"/>
<path d="M649.772 151.829C649.52 153.84 644.393 155.684 642.964 156.678C639.065 159.391 636.057 162.471 633.576 166.423C630.326 171.598 623.089 173.792 620.317 179.059C614.03 191.004 613.481 200.783 617.113 213.497C620.779 226.327 637.826 227.213 646.568 220.527C659.705 210.482 634.555 190.971 634.555 210.294" stroke="#6A30A5" stroke-width="5" stroke-linecap="square"/>
<path d="M85.9443 428.136C86.3091 430.69 96.8479 439.559 99.604 441.351C107.413 446.427 110.776 454.097 117.802 459.816C130.123 469.845 146.022 466.148 158.781 458.97C169.864 452.736 162.417 428.527 150.372 427.38C141.691 426.553 140.793 428.651 138.625 435.967C136.682 442.525 140.974 440.529 145.21 443.353" stroke="#6A30A5" stroke-width="5" stroke-linecap="square"/>
<path d="M162.029 456.968C163.367 456.801 165.2 453.601 166.123 452.564C168.365 450.041 172.719 447.016 175.466 444.955C181.964 440.082 185.727 432.261 193.264 428.492C204.309 422.97 220.025 428.895 223.698 441.752C226.264 450.734 226.855 464.667 213.108 464.176C206.401 463.937 201.273 459.527 201.273 452.608C201.273 446.62 204.305 444.307 210.083 448.159" stroke="#6A30A5" stroke-width="5" stroke-linecap="square"/>
<path d="M218.092 426.534C227.886 435.24 237.549 442.838 244.121 454.521C250.411 465.703 268.337 464.171 278.114 459.771C283.819 457.204 287.74 453.716 289.193 447.357C290.126 443.277 289.419 435.815 285.367 433.564C280.77 431.01 273.792 431.487 270.15 435.344C265.814 439.935 270.632 442.041 274.154 444.154" stroke="#6A30A5" stroke-width="5" stroke-linecap="square"/>
<path d="M84.3428 39.7038C84.5946 41.7182 98.971 34.7714 99.5597 34.498C107.838 30.6545 110.651 23.8026 117.135 17.7238C126.925 8.54567 145.584 2.28179 156.423 14.4757C162.011 20.7618 170.579 36.0518 158.826 41.9285C147.013 47.835 132.557 27.6904 148.414 27.6904" stroke="#6A30A5" stroke-width="5" stroke-linecap="square"/>
<path d="M159.627 14.0753C158.262 14.2702 162.456 15.7512 162.83 15.855C167.348 17.1101 171.281 20.1764 175.021 22.8851C180.468 26.8291 180.903 34.7916 188.014 37.3011C193.328 39.1768 197.252 43.1475 202.875 44.3312C210.597 45.9568 218.242 42.5183 225.122 39.7038C235.29 35.5441 240.136 20.4587 231.707 12.4735C224.586 5.72798 213.236 14.8261 220.494 22.0842" stroke="#6A30A5" stroke-width="5" stroke-linecap="square"/>
<path d="M232.508 37.3013C232.978 33.5377 241.585 28.1219 243.275 23.7751C245.83 17.2064 254.424 13.7193 260.539 11.3168C271.207 7.12568 286.858 8.67057 295.6 17.101C304.194 25.3883 308.42 36.9724 295.022 41.6617C290.525 43.2355 282.319 42.5906 279.938 37.3013C277.824 32.6035 285.568 29.8934 288.57 30.8941" stroke="#6A30A5" stroke-width="5" stroke-linecap="square"/>
<path d="M579.293 42.9072C578.774 47.0631 565.626 33.7988 564.077 32.8516C557.402 28.7725 552.088 23.7109 546.635 18.2576C542.484 14.1064 533.32 11.7068 527.636 10.4711C519.527 8.70827 513.5 9.69749 506.768 14.6981C501.818 18.3757 497.603 22.8602 497.603 29.2921C497.603 33.9791 503.341 43.355 508.637 43.7081C516.41 44.2263 526.435 43.015 526.435 33.341C526.435 29.9479 522.158 22.1013 520.028 28.4912" stroke="#6A30A5" stroke-width="5" stroke-linecap="square"/>
<path d="M508.815 11.6724C502.504 12.3737 496.711 14.9239 491.24 18.48C485.213 22.3974 483.165 29.2245 478.292 34.0974C468.758 43.6321 449.025 45.0035 437.625 39.3032C433.958 37.4697 431.339 33.5302 427.747 31.3388C423.483 28.7371 422.319 24.7729 422.319 20.0373C422.319 17.2467 423.62 11.8674 426.501 10.6936C428.443 9.90247 434.047 6.31117 435.934 7.04505C439.219 8.32238 449.387 11.6317 449.549 15.8549C449.739 20.7846 445.952 21.2783 442.341 23.6858" stroke="#6A30A5" stroke-width="5" stroke-linecap="square"/>
<path d="M441.54 43.7085C441.254 45.7125 413.339 29.9232 409.861 26.4449C400.917 17.5015 387.673 7.24262 374.444 11.4949C369.176 13.1881 365.223 18.4034 363.053 23.2858C360.437 29.172 361.927 32.9717 366.657 37.7018C371.815 42.8595 382.229 40.6124 387.525 36.6785C390.912 34.1619 391.064 25.0343 387.08 27.6907" stroke="#6A30A5" stroke-width="5" stroke-linecap="square"/>
<path d="M576.891 436.946C576.891 435.691 577.141 435.069 576.09 434.543" stroke="#6A30A5" stroke-width="5" stroke-linecap="square"/>
<path d="M575.289 432.141C571.8 432.141 564.407 438.809 561.585 441.395C557.514 445.127 554.462 450.683 549.838 453.765C541.853 459.088 530.997 459.396 522.786 464.621C518.261 467.501 507.95 462.831 505.211 458.57C499.007 448.92 497.005 436.145 511.618 436.145C515.106 436.145 521.499 436.33 523.409 440.15C525.017 443.366 522.349 449.172 518.426 446.557" stroke="#6A30A5" stroke-width="5" stroke-linecap="square"/>
<path d="M507.213 460.172C503.455 459.702 496.325 450.236 492.619 447.98C486.795 444.435 482.602 438.054 476.157 435.522C464.462 430.928 449.436 430.74 438.737 438.147C431.176 443.382 430.998 458.444 441.941 460.127C447.128 460.925 457.518 461.09 459.16 454.521C459.923 451.469 461.491 450.579 458.76 447.847C457.419 446.506 454.011 448.158 454.355 448.158" stroke="#6A30A5" stroke-width="5" stroke-linecap="square"/>
<path d="M452.753 436.145C451.553 426.548 425.725 446.29 423.742 448.959C417.013 458.018 400.183 466.779 390.683 457.28C383.193 449.79 387.905 438.127 394.732 432.541C398.884 429.144 403.714 435.341 407.102 437.124C413.573 440.53 399.547 447.011 397.491 444.955" stroke="#6A30A5" stroke-width="5" stroke-linecap="square"/>
<path d="M298.981 432.141C298.981 426.197 299.782 431.628 299.782 434.588C299.782 441.119 300.107 447.634 300.227 454.121C300.246 455.142 301.202 464.847 300.939 465.022C300.355 465.411 301.384 463.003 301.384 463.375" stroke="#6A30A5" stroke-width="5" stroke-linecap="square"/>
<path d="M378.27 430.539C377.733 425.709 377.469 432.344 377.469 433.742C377.469 439.556 377.469 445.37 377.469 451.184C377.469 452.669 376.706 463.757 379.071 462.574" stroke="#6A30A5" stroke-width="5" stroke-linecap="square"/>
<path d="M303.787 457.769C308.631 457.769 313.729 459.371 318.826 459.371C323.896 459.371 332.084 460.659 336.624 458.748C343.372 455.906 351.745 457.769 358.871 457.769C363.983 457.769 373.586 457.09 377.469 460.972" stroke="#6A30A5" stroke-width="5" stroke-linecap="square"/>
<path d="M302.185 432.14C300.721 430.676 305.433 435.074 307.48 435.388C311.152 435.953 315.263 436.59 319.004 436.59C323.223 436.59 327.115 434.543 331.373 434.543C335.788 434.543 340.22 434.424 344.632 434.543C351.188 434.72 357.769 435.344 364.477 435.344C369.255 435.344 373.816 436.946 378.27 436.946" stroke="#6A30A5" stroke-width="5" stroke-linecap="square"/>
<path d="M290.172 9.27002C289.304 9.37851 296.706 16.2757 298.003 17.101C302.743 20.1177 304.74 24.4364 307.168 29.2923C310.852 36.6593 318.195 45.7165 327.413 38.5471C333.926 33.4811 331.704 18.2395 327.413 12.5181C324.184 8.21262 309.366 16.4644 320.605 22.0843" stroke="#6A30A5" stroke-width="5" stroke-linecap="square"/>
<path d="M373.465 9.26997C371.91 10.5136 370.205 9.67421 368.481 10.2488C365.27 11.3192 363.912 13.2991 361.451 15.2322C358.254 17.7447 357.555 23.6744 356.824 27.5125C355.52 34.3605 350.209 46.1959 341.785 39.3034C336.607 35.0668 335.022 30.3528 335.022 23.508C335.022 20.4897 334.12 10.1418 338.67 9.31446C343.434 8.44826 347.09 11.0508 348.459 15.4991C349.235 18.0196 347.174 26.5038 345.434 21.2833" stroke="#6A30A5" stroke-width="5" stroke-linecap="square"/>
</svg>
