<svg width="208" height="210" viewBox="0 0 208 210" fill="none" xmlns="http://www.w3.org/2000/svg">
<path d="M4.42228 4.25412C4.01511 4.20322 3.79849 3.33672 3.78516 3.46997C3.63114 5.01024 3.47823 6.58543 3.34409 8.15033C2.92813 13.003 3.41261 17.9756 3.07453 22.8776C2.60752 29.649 4.48042 37.0358 4.66734 43.9515C4.88832 52.1276 4.42228 60.3133 4.42228 68.4805C4.42228 74.3624 5.30443 80.1868 5.30443 86.0502C5.30443 90.2539 5.10806 94.9438 5.96608 99.0621C7.40818 105.984 6.18662 113.683 6.18662 120.7C6.18662 130.199 6.18662 139.699 6.18662 149.198C6.18662 159.735 5.30443 170.12 5.30443 180.687C5.30443 185.764 5.74553 190.843 5.74553 195.88C5.74553 198.247 4.79963 202.866 6.18662 204.946" stroke="#6A30A5" stroke-width="5" stroke-linecap="round"/>
<path d="M7.50985 203.623C5.50156 203.372 8.25296 203.182 9.29867 203.182C13.0786 203.182 16.2005 202.664 19.8601 203.525C23.2745 204.328 26.7938 204.214 30.201 203.403C33.8382 202.537 38.7618 203.369 42.5268 203.648C52.0385 204.352 61.5722 203.672 71.0991 203.672C82.1301 203.672 93.1586 204.321 104.205 204.505C113.046 204.653 121.815 204.505 130.572 204.505C135.655 204.505 140.67 203.314 145.838 203.648C150.952 203.978 156.244 204.075 161.374 203.648C169.422 202.977 177.693 203.182 185.707 203.182C191.762 203.182 197.874 204.946 203.791 204.946" stroke="#6A30A5" stroke-width="5" stroke-linecap="round"/>
<path d="M202.909 6.45942C202.909 5.87821 203.587 3.20962 203.129 4.03348C202.693 4.81848 202.909 6.03152 202.909 6.90051C202.909 12.1806 202.215 17.6805 202.811 22.8775C203.271 26.8879 203.239 31.6653 203.35 35.7668C203.458 39.7742 204.232 43.7286 204.232 47.7251C204.232 53.079 204.673 58.4028 204.673 63.7755C204.673 68.6982 204.327 73.6532 204.232 78.6008C204.042 88.5088 203.35 98.3887 203.35 108.3C203.35 126.348 203.791 144.419 203.791 162.504C203.791 167.327 204.581 172.164 204.673 176.962C204.734 180.116 203.791 183.156 203.791 186.421C203.791 189.968 203.35 193.541 203.35 197.031C203.35 199.794 202.942 204.163 203.791 206.71" stroke="#6A30A5" stroke-width="5" stroke-linecap="round"/>
<path d="M3.54016 4.25391C1.66123 2.14012 6.35789 3.30007 7.46087 3.46976C12.3838 4.22713 17.54 3.04529 22.4086 3.91084C32.1548 5.64353 41.9533 2.93785 51.716 3.37174C70.5374 4.20824 89.6172 4.21703 108.616 3.81282C118.587 3.60065 128.535 3.37174 138.609 3.37174C148.095 3.37174 157.308 5.13606 166.74 5.13606C171.232 5.13606 175.495 5.13606 179.973 5.13606C182.865 5.13606 187.789 4.00134 190.461 4.793C195.353 6.24263 200.057 2.44573 204.232 5.57716" stroke="#6A30A5" stroke-width="5" stroke-linecap="round"/>
<path d="M30.8872 55.4194C29.0343 53.1034 28.2407 48.23 28.2407 45.2745C28.2407 41.5667 29.616 37.8351 31.9899 34.9336C36.3142 29.6485 44.0117 25.6233 50.8339 25.8669C54.4203 25.995 56.3087 25.2645 59.1164 28.0724C61.504 30.46 64.7481 30.9062 66.4188 34.2475C67.0629 35.5358 68.4834 36.2434 69.2613 37.4331C70.0058 38.5716 70.1691 40.0853 70.6826 41.3048C71.682 43.6783 71.1055 46.4677 71.4912 48.9747C72.9374 58.375 60.343 69.1215 51.3975 67.7452C46.5312 66.9965 42.7793 65.8989 38.3856 63.7019C36.2922 62.6552 34.7069 62.1804 32.8721 60.7124C30.871 59.1114 30.5851 55.6972 29.564 53.6551" stroke="#6A30A5" stroke-width="5" stroke-linecap="round"/>
<path d="M33.0925 86.7362C33.0925 95.5765 34.6876 104.401 34.8569 113.201C34.9925 120.252 34.8569 127.321 34.8569 134.373C34.8569 143.046 34.4158 151.693 34.4158 160.397C34.4158 165.763 35.298 171.165 35.298 176.496C35.298 181.106 40.5503 180.371 43.4335 182.206C47.1565 184.575 51.5695 181.901 55.2446 182.99C58.815 184.048 63.1394 184.505 64.9484 180.687C67.3669 175.581 67.0558 168.19 67.0558 162.602C67.0558 155.681 66.1736 148.762 66.1736 141.798C66.1736 134.108 66.0314 126.113 65.267 118.47C64.6807 112.606 65.7326 106.377 65.7326 100.41C65.7326 94.7652 64.8504 89.3159 64.8504 83.6486C64.8504 82.3691 65.0142 79.5064 63.7722 78.7967C63.0786 78.4004 62.9117 77.2632 61.9834 77.0569C61.2152 76.8862 60.2909 77.2604 59.5574 76.9344C57.9228 76.2079 55.5891 76.5913 53.7989 76.5913C51.762 76.5913 48.2797 75.4074 46.5455 76.3708C43.5804 78.018 38.4165 76.992 35.1019 77.9391C32.063 78.8074 34.0954 90.8661 34.4158 90.7059" stroke="#6A30A5" stroke-width="5" stroke-linecap="round"/>
<path d="M80.7294 77.4735C79.2762 77.6551 80.3238 99.9227 80.6314 102.076C82.1668 112.825 80.7294 123.768 80.7294 134.569C80.7294 145.542 81.6116 156.384 81.6116 167.356C81.6116 170.138 81.7747 179.756 85.8509 180.662C88.2569 181.197 89.5495 181.569 91.977 181.569C94.6235 181.569 97.27 181.569 99.9165 181.569C103.704 181.569 109.639 182.454 112.732 180.687C115.386 179.17 115.134 168.419 115.134 165.714C115.134 161.491 114.252 157.284 114.252 153.07C114.252 147.855 114.693 142.762 114.693 137.559C114.693 125.333 113.504 112.099 124.936 104.624C128.995 101.97 134.692 102.004 138.854 104.624C140.259 105.509 143.236 107.634 143.706 109.231C144.485 111.881 147.222 112.923 147.798 116.093C148.849 121.871 149.979 127.179 149.979 133.295C149.979 142.527 150.005 151.734 150.837 160.887C151.295 165.929 149.961 170.943 150.886 176.031C151.542 179.639 157.842 180.121 160.467 181.03C163.741 182.163 169.123 182.451 172.817 182.451C175.841 182.451 179.448 181.632 180.953 178.922C182.946 175.334 183.06 171.79 183.06 167.552C183.06 162.467 183.531 156.651 182.644 151.771C182.212 149.399 184.082 146.133 184.359 143.636C184.664 140.895 184.19 137.839 184.629 135.206C185.711 128.71 184.556 121.494 183.967 115.014C183.303 107.707 180.895 101.146 179.532 93.9895C178.847 90.3954 175.914 84.8824 173.357 82.3254C165.491 74.4595 151.838 74.4421 141.06 74.827C134.347 75.0667 128.685 77.4346 123.416 81.1982C122.679 81.7245 114.496 89.8214 113.811 88.28C112.56 85.4663 115.221 81.2715 113.124 78.5762C111.53 76.5266 109.274 77.9103 107.17 77.2529C105.078 76.5992 102.953 76.5913 100.774 76.5913C96.1606 76.5913 91.4499 76.8486 86.9045 77.498C85.1408 77.7499 82.6725 77.4539 80.9744 77.939C79.7543 78.2877 80.2883 81.839 80.2883 82.7664" stroke="#6A30A5" stroke-width="5" stroke-linecap="round"/>
</svg>
