<svg width="650" height="153" viewBox="0 0 650 153" fill="none" xmlns="http://www.w3.org/2000/svg">
<path d="M63.088 76.8579C65.5611 76.8579 68.0951 77.4877 70.5566 77.2487C81.7612 76.1609 93.0651 73.0801 104.035 70.692C108.063 69.8151 112.924 69.2504 116.54 66.9143C120.148 64.5837 127.635 56.1906 125.941 51.1087C124.932 48.0798 113.698 48.3249 111.373 48.1343C102.22 47.384 92.6098 47.1599 83.5832 49.1981C76.4208 50.8154 72.8905 55.9315 68.1684 60.8352C65.6765 63.423 65.8095 66.4211 64.6512 69.6064C61.2865 78.8594 73.7805 83.8923 81.1516 83.8923C97.5396 83.8923 108.188 64.3125 111.134 50.5008C112.885 42.2957 112.29 30.2796 107.053 23.2969C102.478 17.1973 92.2634 9.91737 84.4516 9.33677C75.5431 8.67465 66.5404 13.0056 60.2656 19.2804C57.0475 22.4985 55.2212 26.8263 53.0141 30.7438C50.7259 34.8054 48.051 38.8505 47.2824 43.5316C45.9606 51.5828 49.5039 60.6243 54.751 66.784C61.7037 74.9459 72.4538 78.0973 82.8016 76.6191C93.7052 75.0614 98.7821 69.5046 104.1 60.4444C107.123 55.2936 107.894 50.2357 108.182 44.3132C108.41 39.6161 109.002 32.597 106.032 28.6161C100.437 21.116 92.9024 18.9238 83.9306 19.8015C72.567 20.9131 60.1196 24.4606 50.995 31.6122C45.9716 35.5495 39.2494 43.056 39.2494 49.8929C39.2494 56.4559 46.4724 61.9283 51.9286 64.6563C58.3989 67.8915 65.771 68.1244 72.8145 67.088C78.5735 66.2406 83.9092 62.6391 89.0109 59.9668C95.8207 56.3997 109.767 48.1361 102.689 38.994C95.791 30.0843 82.0553 27.4634 71.2948 26.9227C58.395 26.2744 42.6906 27.6283 32.1716 35.9327C24.4523 42.0269 17.7989 54.4929 17.7989 64.5261C17.7989 73.9604 25.4536 79.9046 32.215 85.1515C41.0229 91.9864 52.7318 97.3048 64.1302 94.3569C73.8918 91.8324 83.533 83.5479 89.684 75.8592C93.0378 71.6669 96.2623 66.8016 96.8052 61.3128C97.4771 54.5191 94.6814 49.4917 91.0518 44.0309C83.9015 33.2733 77.072 21.7999 65.0203 15.9369C56.7181 11.898 46.6004 10.4493 37.5125 11.7901C34.1319 12.2889 30.4258 12.4074 27.7643 14.8079C24.3883 17.8529 23.4867 22.9613 23.7043 27.3135C24.2691 38.6098 30.0436 48.961 34.3861 59.1417C39.4581 71.0327 47.1835 82.1556 55.6412 91.8819C62.1678 99.3875 71.4338 105.043 80.2831 109.468C82.8503 110.751 86.6025 112.858 89.6406 112.138C93.3423 111.262 93.7301 105.616 93.8742 102.607C94.5953 87.5544 88.9263 74.4565 83.822 60.6398C78.1623 45.3197 74.0167 29.6831 63.2183 16.8922C56.311 8.71031 48.2454 2.57445 37.0349 3.08401C26.6871 3.55436 20.9253 10.7929 20.9253 20.6048C20.9253 47.1485 36.8049 74.0323 60.9604 85.1515C71.659 90.0762 83.8482 96.0581 96.0453 94.4438C106.65 93.0403 105.112 82.1414 103.883 74.0138C98.9345 41.2781 64.8147 24.4077 33.9736 27.8345C23.4133 29.0079 11.9121 34.9574 9.78758 46.3974C7.47831 58.832 17.8196 67.0463 27.6123 72.2552C41.6 79.6955 55.7615 86.7864 71.1645 90.8398C77.755 92.5741 84.6675 94.3605 91.5294 94.1833C99.4448 93.9788 107.632 93.2249 115.498 92.251C121.877 91.4613 134.141 86.7471 136.493 79.9843C138.931 72.9753 126.412 67.8105 121.664 66.2195C107.524 61.4808 92.4236 63.2544 78.3074 67.3051C68.3538 70.1613 58.114 76.6095 55.6629 87.2792C50.2686 110.76 88.7946 104.009 101.343 101.456C112.11 99.2666 121.402 94.5581 129.068 86.6279C136.087 79.3662 134.499 70.9477 126.962 65.0906C116.186 56.7173 100.273 53.6626 87.0135 52.2377C66.2983 50.0115 46.2241 52.4558 26.7439 59.8365C17.0971 63.4915 -2.93717 75.3362 4.55524 88.2345C7.3075 92.9725 13.1667 95.0432 18.0595 96.7017C25.4176 99.196 33.1038 100.678 40.8343 101.435C57.7576 103.092 75.9234 101.754 92.2024 96.7452C106.626 92.3072 117.957 83.4896 119.363 67.7827C120.549 54.5217 115.583 42.7909 103.731 36.3018C88.3152 27.8619 69.6602 31.3928 54.6859 39.1894C46.5321 43.4347 38.0468 48.6173 31.4334 55.0384C25.4628 60.8355 19.7081 67.3885 15.0199 74.2743C13.7765 76.1007 13.1962 77.8061 12.8705 79.9409C11.1054 91.5123 19.234 96.8379 29.1755 99.915C35.2006 101.78 41.6594 102.479 47.8469 103.649C54.0627 104.824 60.1793 105.607 66.5184 105.299C82.2223 104.537 95.9831 92.8221 102.928 79.181C116.036 53.4321 107.522 5.3205 69.6447 14.9816C52.4548 19.3661 38.596 34.2229 30.0873 49.1981C23.5081 60.7776 23.8428 75.5972 31.0861 86.8015C38.0941 97.6421 48.8143 105.054 62.111 104.735C76.496 104.39 86.818 95.096 92.8755 82.5028C97.3946 73.1077 103.467 53.464 94.2216 44.8559C83.3706 34.7533 66.414 49.8421 57.8774 56.1022C45.182 65.4122 32.2268 76.0949 26.3096 91.1872C22.2714 101.487 24.6944 111.573 36.0796 114.678C45.7559 117.317 56.953 112.789 65.1506 108.035C79.6617 99.6184 92.0587 87.1617 99.3019 71.8644C103.022 64.008 106.252 55.6628 107.552 47.027C108.445 41.0919 109.437 33.9537 105.946 28.6161C97.9972 16.4643 82.7664 21.553 72.2718 27.6825C55.6861 37.3697 41.2445 50.202 30.7387 66.3064C26.1566 73.3302 22.329 80.7942 19.0147 88.495C16.3358 94.7197 13.5496 102.15 14.4772 109.055C15.5918 117.354 23.5901 121.833 30.8472 124.318C42.2524 128.224 54.4472 129.394 66.1276 125.621C80.2518 121.058 91.9045 110.605 101.777 99.915C110.537 90.4291 121.491 78.15 122.424 64.6129C123.126 54.4388 118.301 45.5214 109.723 39.971C99.2604 33.2009 84.5139 34.9261 73.2053 38.4295C60.1144 42.4851 47.8239 50.3878 42.0284 63.2668C37.3663 73.627 43.794 84.7302 53.0576 90.0148C74.9128 102.483 96.2363 79.4105 100.561 59.3589C102.926 48.3934 103.133 37.0045 92.007 31.1997C81.2001 25.5613 67.4872 32.7958 59.0498 40.0361C51.3232 46.6664 45.4427 54.9448 41.5942 64.3524C38.4635 72.0052 38.6891 79.6431 39.2494 87.6265C40.1413 100.337 47.674 113.804 59.0715 120.084" stroke="#6A30A5" stroke-width="5" stroke-linecap="round"/>
<path d="M51.6876 114.066C69.9778 132.357 96.1517 135.483 121.242 135.194C132.271 135.068 144.302 133.752 155.047 131.304C165.93 128.825 177.505 127.263 188.114 123.591C198.003 120.168 210.238 117.643 217.425 109.371C222.023 104.079 228.117 97.9104 226.446 90.222C225.684 86.7163 222.089 81.469 217.995 81.469C211.303 81.469 210.634 85.268 211.019 90.8592C211.513 98.0192 213.245 104.857 218.263 110.377C223.105 115.704 231.247 119.044 237.48 122.518C244.174 126.249 253.194 124.72 260.419 123.591C268.491 122.33 277.389 119.874 284.967 116.951C293.353 113.716 302.193 111.992 310.522 108.499C317.887 105.411 324.545 105.106 332.354 103.804C339.336 102.641 346.644 105.731 353.315 107.493C361.9 109.761 371.361 112.443 379.439 116.146C392.29 122.035 413.705 125.91 427.162 120.405C429.864 119.299 442.569 113.327 441.281 109.204C439.806 104.484 432.502 100.794 428 102.295C419.429 105.152 414.722 109.323 407.845 114.972C402.441 119.411 400.958 130.119 406.034 135.194C419.157 148.317 435.804 152.538 453.857 147.737C464.701 144.853 474.77 142.417 485.314 138.347C497.292 133.724 508.219 127.038 519.89 121.914C536.826 114.479 558.313 106.418 577.103 110.176C598.975 114.551 627.118 130.491 647.496 116.481" stroke="#6A30A5" stroke-width="5" stroke-linecap="round"/>
</svg>
