<svg width="140" height="131" viewBox="0 0 140 131" fill="none" xmlns="http://www.w3.org/2000/svg">
<path d="M63.1746 76.8035C65.6476 76.8035 68.1816 77.4332 70.6431 77.1943C81.8477 76.1064 93.1517 73.0256 104.121 70.6375C108.149 69.7607 113.011 69.196 116.627 66.8598C120.235 64.5293 127.722 56.1362 126.028 51.0542C125.018 48.0253 113.785 48.2704 111.46 48.0798C102.306 47.3295 92.6963 47.1054 83.6697 49.1437C76.5073 50.761 72.977 55.8771 68.2549 60.7808C65.763 63.3685 65.896 66.3667 64.7377 69.552C61.3731 78.8049 73.867 83.8378 81.2381 83.8378C97.6261 83.8378 108.274 64.2581 111.221 50.4463C112.971 42.2412 112.376 30.2252 107.139 23.2425C102.565 17.1429 92.3499 9.86293 84.5381 9.28233C75.6296 8.6202 66.627 12.9511 60.3521 19.226C57.134 22.444 55.3077 26.7718 53.1007 30.6894C50.8124 34.751 48.1375 38.7961 47.369 43.4771C46.0471 51.5284 49.5904 60.5699 54.8375 66.7296C61.7902 74.8914 72.5403 78.0429 82.8881 76.5646C93.7917 75.007 98.8687 69.4501 104.187 60.39C107.21 55.2392 107.981 50.1813 108.268 44.2587C108.496 39.5617 109.089 32.5426 106.119 28.5617C100.524 21.0616 92.9889 18.8693 84.0171 19.747C72.6535 20.8587 60.2061 24.4061 51.0815 31.5578C46.0581 35.4951 39.3359 43.0016 39.3359 49.8384C39.3359 56.4015 46.5589 61.8738 52.0151 64.6019C58.4854 67.8371 65.8575 68.07 72.9011 67.0335C78.6601 66.1861 83.9957 62.5847 89.0975 59.9123C95.9072 56.3453 109.853 48.0816 102.775 38.9395C95.8776 30.0299 82.1418 27.4089 71.3813 26.8682C58.4815 26.22 42.7771 27.5738 32.2581 35.8783C24.5388 41.9725 17.8854 54.4384 17.8854 64.4716C17.8854 73.9059 25.5401 79.8502 32.3015 85.0971C41.1094 91.932 52.8183 97.2504 64.2167 94.3025C73.9783 91.7779 83.6196 83.4934 89.7705 75.8048C93.1243 71.6124 96.3488 66.7471 96.8917 61.2584C97.5636 54.4647 94.7679 49.4373 91.1383 43.9765C83.988 33.2188 77.1585 21.7454 65.1068 15.8825C56.8047 11.8436 46.6869 10.3948 37.599 11.7357C34.2184 12.2345 30.5123 12.3529 27.8508 14.7535C24.4749 17.7984 23.5732 22.9069 23.7908 27.259C24.3556 38.5554 30.1301 48.9065 34.4726 59.0873C39.5446 70.9783 47.27 82.1012 55.7277 91.8275C62.2543 99.3331 71.5203 104.989 80.3696 109.413C82.9369 110.697 86.689 112.803 89.7271 112.084C93.4288 111.207 93.8166 105.562 93.9607 102.553C94.6818 87.4999 89.0128 74.4021 83.9085 60.5854C78.2489 45.2652 74.1032 29.6287 63.3048 16.8377C56.3975 8.65587 48.3319 2.52001 37.1214 3.02957C26.7737 3.49991 21.0118 10.7385 21.0118 20.5503C21.0118 47.0941 36.8914 73.9779 61.0469 85.0971C71.7455 90.0218 83.9348 96.0037 96.1318 94.3894C106.736 92.9858 105.198 82.0869 103.969 73.9593C99.021 41.2237 64.9012 24.3533 34.0601 27.7801C23.4998 28.9534 11.9987 34.903 9.8741 46.343C7.56483 58.7776 17.9061 66.9919 27.6988 72.2007C41.6865 79.641 55.848 86.7319 71.251 90.7853C77.8416 92.5197 84.7541 94.3061 91.6159 94.1288C99.5314 93.9244 107.719 93.1704 115.585 92.1965C121.963 91.4068 134.227 86.6927 136.579 79.9298C139.017 72.9209 126.498 67.7561 121.751 66.1651C107.611 61.4264 92.5101 63.1999 78.3939 67.2506C68.4403 70.1069 58.2005 76.5551 55.7494 87.2247C50.3551 110.706 88.8812 103.954 101.429 101.402C112.196 99.2121 121.488 94.5036 129.154 86.5734C136.174 79.3117 134.586 70.8932 127.048 65.0361C116.273 56.6629 100.359 53.6081 87.1 52.1832C66.3848 49.9571 46.3107 52.4013 26.8304 59.7821C17.1836 63.437 -2.85065 75.2817 4.64176 88.18C7.39401 92.9181 13.2532 94.9887 18.146 96.6473C25.5042 99.1416 33.1903 100.623 40.9208 101.38C57.8442 103.037 76.0099 101.7 92.289 96.6907C106.712 92.2527 118.044 83.4352 119.449 67.7283C120.636 54.4673 115.67 42.7364 103.817 36.2474C88.4017 27.8074 69.7467 31.3384 54.7724 39.1349C46.6186 43.3803 38.1333 48.5628 31.5199 54.9839C25.5493 60.781 19.7946 67.3341 15.1064 74.2199C13.863 76.0462 13.2827 77.7516 12.9571 79.8864C11.1919 91.4578 19.3206 96.7834 29.262 99.8605C35.2871 101.725 41.7459 102.425 47.9334 103.595C54.1492 104.77 60.2658 105.553 66.6049 105.245C82.3088 104.483 96.0696 92.7677 103.014 79.1265C116.123 53.3777 107.609 5.26606 69.7313 14.9272C52.5413 19.3117 38.6825 34.1684 30.1739 49.1437C23.5946 60.7231 23.9294 75.5428 31.1726 86.7471C38.1806 97.5876 48.9009 104.999 62.1976 104.68C76.5826 104.335 86.9045 95.0416 92.962 82.4483C97.4811 73.0533 103.554 53.4095 94.3081 44.8015C83.4571 34.6989 66.5005 49.7876 57.9639 56.0478C45.2685 65.3577 32.3134 76.0405 26.3962 91.1327C22.3579 101.433 24.781 111.519 36.1661 114.624C45.8424 117.263 57.0395 112.735 65.2371 107.98C79.7483 99.564 92.1452 87.1072 99.3884 71.8099C103.108 63.9536 106.339 55.6084 107.639 46.9726C108.532 41.0374 109.523 33.8992 106.032 28.5617C98.0837 16.4099 82.8529 21.4985 72.3583 27.6281C55.7726 37.3153 41.3311 50.1476 30.8252 66.2519C26.2431 73.2758 22.4155 80.7398 19.1013 88.4406C16.4223 94.6652 13.6361 102.096 14.5637 109.001C15.6784 117.299 23.6766 121.778 30.9338 124.264C42.3389 128.17 54.5338 129.34 66.2141 125.566C80.3383 121.003 91.991 110.551 101.864 99.8605C110.624 90.3747 121.577 78.0955 122.511 64.5585C123.212 54.3843 118.388 45.467 109.81 39.9165C99.3469 33.1464 84.6004 34.8716 73.2919 38.375C60.2009 42.4307 47.9105 50.3333 42.1149 63.2124C37.4528 73.5725 43.8805 84.6757 53.1441 89.9603C74.9993 102.428 96.3228 79.3561 100.648 59.3044C103.013 48.3389 103.219 36.9501 92.0936 31.1453C81.2866 25.5069 67.5738 32.7414 59.1363 39.9817C51.4097 46.6119 45.5292 54.8904 41.6807 64.2979C38.55 71.9507 38.7756 79.5886 39.3359 87.5721C40.2278 100.282 60.9607 116.876 72.3583 123.156" stroke="#6A30A5" stroke-width="5" stroke-linecap="round"/>
</svg>
