<svg width="659" height="477" viewBox="0 0 659 477" fill="none" xmlns="http://www.w3.org/2000/svg">
<path d="M6.50627 10.9847C6.50627 -22.5544 7.11793 78.0612 7.11793 111.6C7.11793 126.525 6.50627 141.63 6.50627 156.59C6.50627 176.737 5.94686 196.971 6.50627 217.109C6.96008 233.446 8.3412 249.579 8.3412 266.041C8.3412 290.473 5.283 314.988 5.283 339.438C5.283 363.485 5.283 387.531 5.283 411.578C5.283 423.266 5.89463 434.9 5.89463 446.612C5.89463 449.475 3.4294 466.246 6.50627 467.272" stroke="#6A30A5" stroke-width="5" stroke-linecap="square"/>
<path d="M45.6515 47.0713C44.0955 34.6232 46.4972 72.1472 46.8408 84.6875C48.1714 133.255 43.4905 181.782 44.768 230.327C45.9681 275.932 43.2049 321.241 43.2049 366.826C43.2049 381.839 43.0988 397.705 45.3117 412.563C45.554 414.19 46.0087 424.965 46.2631 424.456" stroke="#6A30A5" stroke-width="5" stroke-linecap="square"/>
<path d="M652.403 9.76138C650.771 -3.30025 652.639 36.0885 653.015 49.2464C653.205 55.9112 655.288 63.5057 654.102 70.1783C653.184 75.3429 653.433 80.8937 654.102 86.081C655.019 93.1842 653.541 100.416 654.102 107.557C655.279 122.514 654.238 138.144 654.238 153.226C654.238 169.72 653.627 186.183 653.627 202.701C653.627 226.111 653.501 249.559 653.015 272.905C652.203 311.851 653.627 350.487 653.627 389.457C653.627 405.817 654.482 422.226 654.85 438.388C654.991 444.62 654.238 450.757 654.238 456.874C654.238 459.103 652.039 463.114 654.238 464.213" stroke="#6A30A5" stroke-width="5" stroke-linecap="square"/>
<path d="M613.87 45.2368C613.364 45.2368 615.093 72.5288 615.093 76.5666C615.093 84.0079 615.093 91.5497 615.093 98.7897C615.093 104.279 616.427 112.198 614.787 117.445C613.748 120.772 614.578 124.946 614.482 128.421C614.347 133.254 613.87 138.105 613.87 143.032C613.87 150.226 614.482 157.465 614.482 164.576C614.482 182.013 613.87 199.514 613.87 216.973C613.87 251.786 614.482 286.884 614.482 321.7C614.482 330.75 614.482 339.8 614.482 348.85C614.482 353.231 613.807 358.398 614.617 362.68C615.269 366.124 615.628 371.114 614.821 374.608C613.759 379.213 616.02 384.809 614.957 389.593C613.829 394.669 614.482 400.293 614.482 405.496C614.482 412.183 613.258 418.97 613.258 425.68" stroke="#6A30A5" stroke-width="5" stroke-linecap="square"/>
<path d="M10.788 4.25663C6.98276 6.04733 11.7872 2.75316 13.2346 4.56245C14.2655 5.85116 20.2196 4.93176 21.9335 4.86828C32.2632 4.48569 42.9779 5.86353 53.4672 6.09156C59.6959 6.22697 65.3551 7.07727 71.6466 6.73719C75.1194 6.54948 78.9154 6.49429 82.3164 5.78574C86.3266 4.95028 90.8893 6.37789 95.059 5.95564C109.469 4.4964 124.226 8.18481 138.69 7.28087C152.531 6.41581 167.286 7.75577 181.131 8.50417C198.206 9.42715 215.146 8.53815 232.203 8.53815C240.309 8.53815 248.35 7.31485 256.363 7.31485C263.803 7.31485 271.148 7.9265 278.552 7.9265C295.161 7.9265 311.924 6.70321 328.537 6.70321C356.954 6.70321 385.128 10.1382 413.318 8.57213C447.148 6.69275 481.35 9.07638 515.259 8.53815C542.122 8.11175 568.955 7.9265 595.826 7.9265C601.71 7.9265 607.462 7.9265 613.258 7.9265C619.126 7.9265 625.527 8.96344 631.268 8.50417C636.039 8.12246 640.784 8.53815 645.675 8.53815C648.074 8.53815 653.061 9.73106 654.85 8.53815" stroke="#6A30A5" stroke-width="5" stroke-linecap="square"/>
<path d="M42.5938 46.4601C88.3965 46.4601 134.141 46.4601 180.078 46.4601C234.058 46.4601 287.989 45.8485 341.994 45.8485C364.715 45.8485 387.184 45.2368 409.886 45.2368C433.328 45.2368 456.733 46.4601 480.226 46.4601C504.49 46.4601 528.937 47.0718 553.351 47.0718C565.969 47.0718 578.587 47.0718 591.205 47.0718C598.948 47.0718 610.244 48.2806 617.54 45.8485" stroke="#6A30A5" stroke-width="5" stroke-linecap="square"/>
<path d="M8.95312 467.271C8.95312 463.078 128.345 466.161 137.976 467.577C150.755 469.456 164.322 467.271 177.121 467.271C192.162 467.271 206.96 466.876 222.043 467.849C257 470.104 291.984 465.436 327.008 465.436C386.595 465.436 446.221 465.436 505.677 465.436C520.406 465.436 535.1 466.66 549.919 466.66C564.008 466.66 577.857 466.66 591.986 466.66C612.451 466.66 632.994 467.883 653.627 467.883" stroke="#6A30A5" stroke-width="5" stroke-linecap="square"/>
<path d="M46.875 425.68C46.875 425.066 47.813 426.126 48.4041 426.258C49.463 426.493 50.8171 426.332 51.9041 426.291C55.1694 426.171 57.6681 425.79 60.9428 426.258C67.9475 427.258 75.2773 426.903 82.3844 426.903C102.565 426.903 123.102 425.875 143.175 427.481C153.821 428.332 166.358 428.628 176.883 427.039C187.028 425.508 198.732 427.85 208.961 428.126C231.36 428.732 253.893 428.397 276.378 428.738C292.335 428.98 308.234 428.126 324.154 428.126C337.689 428.126 351.29 428.126 364.862 428.126C393.997 428.126 423.188 429.961 452.429 429.961C505.988 429.961 559.618 429.961 613.258 429.961" stroke="#6A30A5" stroke-width="5" stroke-linecap="square"/>
<path d="M4.05989 464.825C3.25107 464.825 10.9002 458.516 10.9919 458.437C15.8048 454.288 18.3438 447.655 23.0209 443.757C26.6051 440.77 33.789 436.845 36.0013 432.748C37.0445 430.816 41.3361 423.414 43.8168 425.068" stroke="#6A30A5" stroke-width="5" stroke-linecap="square"/>
<path d="M5.89453 5.47993C6.07605 4.02775 8.62544 7.59588 9.05469 7.99448C12.2161 10.93 16.2874 13.2435 18.6031 16.9653C22.289 22.889 25.8163 27.11 31.0059 31.7807C36.2363 36.4879 39.9358 41.5618 45.6514 45.8485" stroke="#6A30A5" stroke-width="5" stroke-linecap="square"/>
<path d="M610.2 47.6833C614.858 47.6833 619.041 42.4811 621.345 38.9844C625.044 33.3729 632.239 31.2738 635.583 25.3583C638.343 20.476 643.868 16.5898 648.36 13.4652C650.025 12.3067 652.553 8.37724 653.015 9.76133" stroke="#6A30A5" stroke-width="5" stroke-linecap="square"/>
<path d="M611.423 430.573C609.689 428.622 612.436 431.338 613.258 431.932C615.848 433.802 618.089 435.827 619.986 438.388C623.584 443.245 630.854 445.722 635.142 450.01C640.66 455.528 646.644 462.557 653.627 466.048" stroke="#6A30A5" stroke-width="5" stroke-linecap="square"/>
<path d="M6.34378 385.424C6.10826 383.54 14.4041 392.785 16.4994 394.558C20.0753 397.584 24.9663 404.339 26.8954 408.68C29.5873 414.736 39.1061 424.468 45.2836 426.527" stroke="#6A30A5" stroke-width="5" stroke-linecap="square"/>
<path d="M6.34418 382.179C6.12399 380.417 3.37857 381.62 4.7818 379.415C6.6682 376.45 8.49594 373.272 10.6708 370.521C14.9576 365.099 18.7541 360.019 22.5691 354.296C25.7741 349.489 33.4133 331.341 39.8757 331.341" stroke="#6A30A5" stroke-width="5" stroke-linecap="square"/>
<path d="M38.794 325.932C34.0866 325.344 26.0158 305.646 24.7324 301.475C21.7468 291.771 14.8372 283.267 11.7524 274.013" stroke="#6A30A5" stroke-width="5" stroke-linecap="square"/>
<path d="M11.7524 269.686C9.05994 269.686 41.3064 222.791 42.0389 224.256" stroke="#6A30A5" stroke-width="5" stroke-linecap="square"/>
<path d="M43.1205 221.011C39.6151 220.622 36.477 213.094 34.8879 210.676C30.8339 204.506 25.575 199.26 21.4873 193.129C19.2653 189.796 4.98171 175.342 5.26238 174.5" stroke="#6A30A5" stroke-width="5" stroke-linecap="square"/>
<path d="M6.34411 174.5C4.25395 172.148 39.6943 124.789 48.5289 122.58" stroke="#6A30A5" stroke-width="5" stroke-linecap="square"/>
<path d="M44.202 122.58C44.1057 123.351 23.9934 102.369 21.4871 98.5433C18.6361 94.1916 16.4802 88.3684 12.8338 84.722C10.3266 82.2147 6.40859 80.5897 5.26221 77.1504" stroke="#6A30A5" stroke-width="5" stroke-linecap="square"/>
<path d="M6.34424 79.3138C6.34424 73.2458 20.6486 65.0718 24.9729 61.166C30.9779 55.7421 38.4146 52.462 45.284 49.0273" stroke="#6A30A5" stroke-width="5" stroke-linecap="square"/>
<path d="M44.2021 424.364C44.507 426.802 50.3758 433.629 52.3146 435.18C55.1615 437.458 57.1347 442.986 59.3454 446.237C62.4364 450.783 68.5623 453.947 72.8662 457.294C75.4221 459.282 78.6041 464.385 82.0603 464.385" stroke="#6A30A5" stroke-width="5" stroke-linecap="square"/>
<path d="M111.265 427.608C112.15 434.686 128.205 445.571 133.499 449.903C139.479 454.795 143.614 464.335 150.205 467.63" stroke="#6A30A5" stroke-width="5" stroke-linecap="square"/>
<path d="M199.961 427.608C203.962 431.609 207.482 436.09 211.439 440.048C215.89 444.499 223.002 446.023 226.462 451.405C231.309 458.944 238.333 465.088 245.391 469.793" stroke="#6A30A5" stroke-width="5" stroke-linecap="square"/>
<path d="M280.004 428.69C280.955 436.293 298.682 444.315 304.041 449.482C309.476 454.723 316.809 465.481 323.271 468.712" stroke="#6A30A5" stroke-width="5" stroke-linecap="square"/>
<path d="M80.9785 463.303C84.1424 462.952 83.9397 458.729 85.3052 456.573C88.6482 451.294 93.4985 444.664 98.8259 441.189C104.597 437.425 109.443 429.658 115.592 427.608" stroke="#6A30A5" stroke-width="5" stroke-linecap="square"/>
<path d="M150.205 466.548C146.97 466.144 154.904 460.011 155.854 459.277C162.335 454.269 168.047 447.819 174.482 442.992C178.848 439.718 184.717 437.389 189.686 435.18C193.497 433.486 193.465 429.772 197.798 429.772" stroke="#6A30A5" stroke-width="5" stroke-linecap="square"/>
<path d="M243.228 471.957C252.05 464.115 261.049 452.76 266.544 442.271C268.809 437.946 274.029 434.95 276.76 430.613C278.657 427.6 279.48 424.953 281.086 429.772" stroke="#6A30A5" stroke-width="5" stroke-linecap="square"/>
<path d="M51.7736 44.7002C53.2417 31.4876 77.0787 26.6568 84.2234 16.3367C85.6436 14.2853 92.8623 4.46576 88.0694 10.6279C80.6663 20.1459 73.3401 25.042 63.6719 32.5616C58.3163 36.727 53.2815 42.0663 49.1295 47.4044C45.0153 52.694 54.1157 40.6755 56.1003 38.691C63.9848 30.8065 74.6328 26.2573 83.0216 18.8005C84.2208 17.7345 92.8767 8.27094 92.8767 9.00541" stroke="#6A30A5" stroke-width="5" stroke-linecap="square"/>
<path d="M96.122 6.8422C94.1545 6.59625 97.1123 6.5064 99.1266 7.92384C102.453 10.2648 105.683 13.1584 108.561 16.0363C111.247 18.7223 116.095 22.3853 119.438 24.2089C130.034 29.9886 138.332 37.1456 148.042 43.6187" stroke="#6A30A5" stroke-width="5" stroke-linecap="square"/>
<path d="M145.878 40.3739C144.053 40.3739 147.829 38.423 149.724 36.528C155.848 30.4037 165.915 28.8702 172.259 22.5265C176.324 18.4612 191.028 5.76074 196.716 5.76074" stroke="#6A30A5" stroke-width="5" stroke-linecap="square"/>
<path d="M196.716 6.84227C196.716 5.34835 202.26 13.3457 203.086 14.0533C209.135 19.2385 213.769 22.0643 220.573 25.8915C226.966 29.4879 229.806 37.4486 235.656 40.3738" stroke="#6A30A5" stroke-width="5" stroke-linecap="square"/>
<path d="M235.656 40.3738C243.926 40.3738 256.663 28.0205 262.698 21.9855C268.338 16.3447 274.568 11.1872 281.086 6.84229" stroke="#6A30A5" stroke-width="5" stroke-linecap="square"/>
<path d="M283.25 5.76074C284.12 12.7285 296.921 22.2417 302.599 25.7114C309.978 30.2209 314.202 35.6319 320.026 41.4556" stroke="#6A30A5" stroke-width="5" stroke-linecap="square"/>
<path d="M324.353 42.5372C332.749 35.0736 342.076 29.1305 348.99 19.8223C351.413 16.5615 358.408 6.00632 361.129 10.0874" stroke="#6A30A5" stroke-width="5" stroke-linecap="square"/>
<path d="M361.129 7.92392C361.336 6.2675 382.925 23.6675 385.947 26.3122C392.108 31.7027 401.69 34.9623 405.477 42.5371" stroke="#6A30A5" stroke-width="5" stroke-linecap="square"/>
<path d="M406.559 41.4557C406.794 39.5732 411.349 36.6159 412.628 34.8455C416.714 29.1875 422.747 25.2718 428.132 20.9642C430.77 18.8532 437.172 7.33304 439.008 10.0875" stroke="#6A30A5" stroke-width="5" stroke-linecap="square"/>
<path d="M441.172 7.92383C442.356 8.07188 447.731 13.2182 449.344 14.2936C456.697 19.1952 463.838 24.511 471.218 29.3167C477.544 33.436 483.59 37.2839 489.847 41.4553" stroke="#6A30A5" stroke-width="5" stroke-linecap="square"/>
<path d="M494.173 41.4554C492.559 41.6572 490.327 46.0868 490.327 44.46C490.327 41.3718 496.338 38.2908 497.959 36.0471C503.406 28.5055 515.16 25.4785 519.592 17.5988C520.895 15.2818 523.78 8.6658 526.623 10.0872" stroke="#6A30A5" stroke-width="5" stroke-linecap="square"/>
<path d="M529.868 10.0873C527.9 9.84126 544.931 23.2181 548.257 25.8315C553.263 29.7652 558.622 36.9931 562.318 42.5372" stroke="#6A30A5" stroke-width="5" stroke-linecap="square"/>
<path d="M563.4 42.5372C561.169 42.2584 576.087 27.1408 577.702 25.471C581.313 21.7354 587.763 11.7012 592.605 10.0874" stroke="#6A30A5" stroke-width="5" stroke-linecap="square"/>
<path d="M593.686 9.00537C599.878 15.1972 605.985 20.6214 611.473 27.634C613.997 30.8582 619.328 40.2676 622.891 41.4552" stroke="#6A30A5" stroke-width="5" stroke-linecap="square"/>
<path d="M321.107 474.12C321.107 462.211 341.197 454.788 349.892 448.1C356.572 442.961 369.402 437.373 373.027 431.935" stroke="#6A30A5" stroke-width="5" stroke-linecap="square"/>
<path d="M373.027 430.853C373.027 426.076 376.212 431.954 377.594 433.017C384.45 438.29 391.893 442.154 398.927 447.078C405.335 451.564 410.531 458.799 417.376 462.222" stroke="#6A30A5" stroke-width="5" stroke-linecap="square"/>
<path d="M417.375 458.977C416.691 464.45 432.244 450.259 435.043 447.799C440.394 443.097 449.707 431.935 457.397 431.935" stroke="#6A30A5" stroke-width="5" stroke-linecap="square"/>
<path d="M461.724 431.935C468.548 438.76 474.146 445.936 482.275 451.405C484.988 453.23 494.031 463.374 496.337 462.222" stroke="#6A30A5" stroke-width="5" stroke-linecap="square"/>
<path d="M500.663 460.058C500.471 461.597 499.51 462.566 500.903 460.058C503.249 455.837 512.204 452.281 515.806 449.783C521.347 445.94 528.973 435.18 536.358 435.18" stroke="#6A30A5" stroke-width="5" stroke-linecap="square"/>
<path d="M537.44 431.935C535.632 432.193 539.727 434.929 540.084 435.18C545.275 438.833 549.475 442.776 553.064 448.04C555.372 451.426 559.898 457.226 563.4 458.977" stroke="#6A30A5" stroke-width="5" stroke-linecap="square"/>
<path d="M561.236 462.222C567.256 455.45 577.432 451.876 584.973 446.598C592.438 441.372 599.723 434.866 607.748 430.854" stroke="#6A30A5" stroke-width="5" stroke-linecap="square"/>
<path d="M618.564 45.7821C615.825 45.4398 616.639 42.0519 619.045 46.8638C622.019 52.8118 626.982 57.7701 632.085 62.0671C638.807 67.728 648.232 80.7031 651.014 89.0486" stroke="#6A30A5" stroke-width="5" stroke-linecap="square"/>
<path d="M618.564 145.295C618.564 149.451 617.496 150.679 620.187 145.836C624.912 137.33 630.996 130.104 637.193 122.58C644.636 113.542 649.273 102.266 654.259 92.2935" stroke="#6A30A5" stroke-width="5" stroke-linecap="square"/>
<path d="M618.565 147.458C616.527 147.458 634.028 172.915 636.111 175.822C641.417 183.225 646.051 190.851 651.014 198.297" stroke="#6A30A5" stroke-width="5" stroke-linecap="square"/>
<path d="M653.178 200.459C647.597 201.08 640.425 222.595 636.712 227.501C632.553 232.997 618.564 243.727 618.564 251.298" stroke="#6A30A5" stroke-width="5" stroke-linecap="square"/>
<path d="M617.483 253.461C609.306 246.307 630.832 270.613 637.193 279.421C641.609 285.535 643.603 295.753 649.933 299.973" stroke="#6A30A5" stroke-width="5" stroke-linecap="square"/>
<path d="M652.096 299.973C648.814 300.383 641.668 319.406 639.116 322.688C633.073 330.458 622.758 338.231 619.646 347.566" stroke="#6A30A5" stroke-width="5" stroke-linecap="square"/>
<path d="M616.401 347.565C617.799 347.74 620.983 353.305 622.53 354.536C628.855 359.567 634.446 363.52 639.957 369.439C644.379 374.188 647.455 380.085 651.014 385.424" stroke="#6A30A5" stroke-width="5" stroke-linecap="square"/>
<path d="M614.238 428.69C614.238 420.276 630.648 414.14 635.871 408.68C641.146 403.165 648.685 396.573 652.096 389.75" stroke="#6A30A5" stroke-width="5" stroke-linecap="square"/>
<path d="M74.4888 42.5369C74.4888 46.5217 82.6417 33.8485 83.743 31.9606C86.2225 27.71 90.7137 22.8318 90.7137 17.6587" stroke="#6A30A5" stroke-width="5" stroke-linecap="square"/>
<path d="M93.9585 9.00537C99.1517 15.4968 98.9981 26.4157 102.612 33.6432C103.568 35.5551 104.631 41.8871 105.857 38.2102" stroke="#6A30A5" stroke-width="5" stroke-linecap="square"/>
<path d="M100.449 12.2505C101.37 21.4663 116.584 43.6187 127.49 43.6187" stroke="#6A30A5" stroke-width="5" stroke-linecap="square"/>
<path d="M165.348 43.6187C163.427 41.9377 173.588 30.4201 176.525 27.8745C178.784 25.9174 191.308 14.1278 191.308 12.2505" stroke="#6A30A5" stroke-width="5" stroke-linecap="square"/>
<path d="M195.635 7.92383C193.645 12.151 196.015 26.2776 196.957 30.3983C197.474 32.6622 197.841 43.5334 198.88 41.4553" stroke="#6A30A5" stroke-width="5" stroke-linecap="square"/>
<path d="M197.798 7.92383C197.798 20.5762 211.143 34.428 220.513 41.4553" stroke="#6A30A5" stroke-width="5" stroke-linecap="square"/>
<path d="M257.29 43.619C265.349 36.5673 269.389 19.6885 278.923 13.3325" stroke="#6A30A5" stroke-width="5" stroke-linecap="square"/>
<path d="M282.168 5.76074C279.304 6.11869 281.086 29.6657 281.086 32.6821C281.086 34.5778 280.004 42.0814 280.004 36.0473" stroke="#6A30A5" stroke-width="5" stroke-linecap="square"/>
<path d="M282.167 9.00537C287.389 15.5318 288.757 26.2098 293.465 33.4029C295.735 36.8711 300.556 47.7637 300.556 43.6185" stroke="#6A30A5" stroke-width="5" stroke-linecap="square"/>
<path d="M345.986 40.374C345.187 40.4738 357.25 11.8285 361.129 14.4141" stroke="#6A30A5" stroke-width="5" stroke-linecap="square"/>
<path d="M361.129 11.1689C361.807 18.6323 365.643 26.5574 367.378 33.8838C368.057 36.7493 365.804 41.0889 368.701 42.5371" stroke="#6A30A5" stroke-width="5" stroke-linecap="square"/>
<path d="M363.292 10.0874C363.86 15.1943 372.507 23.6927 375.191 28.2352C377.929 32.8695 382.611 36.8261 384.926 41.4555" stroke="#6A30A5" stroke-width="5" stroke-linecap="square"/>
<path d="M442.254 13.3324C442.254 6.55343 436.567 26.7493 435.343 29.1967C434.213 31.4575 428.023 41.7086 432.519 34.9656" stroke="#6A30A5" stroke-width="5" stroke-linecap="square"/>
<path d="M444.417 10.0874C439.849 4.94759 445.392 16.9788 446.22 19.4618C448.037 24.912 450.907 41.7923 450.907 36.0473" stroke="#6A30A5" stroke-width="5" stroke-linecap="square"/>
<path d="M443.335 9.00537C444.056 15.493 453.545 23.2083 457.157 28.1748C460.688 33.0303 465.548 37.2058 468.214 42.5369" stroke="#6A30A5" stroke-width="5" stroke-linecap="square"/>
<path d="M506.072 43.6188C500.477 49.2141 516.852 31.8031 520.554 24.8099C522.357 21.404 522.972 17.3213 526.623 15.4956" stroke="#6A30A5" stroke-width="5" stroke-linecap="square"/>
<path d="M525.542 12.2505C525.542 18.2508 528.21 24.99 529.267 30.8791C530.082 35.4165 528.786 49.3102 528.786 44.7003" stroke="#6A30A5" stroke-width="5" stroke-linecap="square"/>
<path d="M527.705 12.2505C530.502 19.8031 536.157 26.2948 541.045 32.5617C543.895 36.2161 546.648 42.1858 550.419 44.7003" stroke="#6A30A5" stroke-width="5" stroke-linecap="square"/>
<path d="M574.216 45.7822C574.216 51.1776 580.194 36.7917 582.93 32.1412C586.126 26.7074 589.147 20.6813 592.605 15.4956" stroke="#6A30A5" stroke-width="5" stroke-linecap="square"/>
<path d="M591.523 10.0874C592.252 17.3745 597.257 24.7284 599.635 31.6004C600.26 33.406 602.195 40.8422 603.421 41.4555" stroke="#6A30A5" stroke-width="5" stroke-linecap="square"/>
<path d="M592.604 12.2505C592.604 21.1638 594.13 29.6884 593.145 38.7512C592.913 40.8857 591.41 45.7253 593.686 46.8637" stroke="#6A30A5" stroke-width="5" stroke-linecap="square"/>
<path d="M30.1405 5.76074C28.0932 6.01665 37.6505 22.1227 38.2529 23.1875C41.7699 29.4037 44.5539 41.6902 50.692 45.7822" stroke="#6A30A5" stroke-width="5" stroke-linecap="square"/>
<path d="M50.6919 43.6189C57.5173 35.0872 52.3509 16.4314 55.0185 5.76074" stroke="#6A30A5" stroke-width="5" stroke-linecap="square"/>
<path d="M52.8554 40.3738C48.6712 39.8508 71.0596 11.9858 74.4886 6.84229" stroke="#6A30A5" stroke-width="5" stroke-linecap="square"/>
<path d="M145.879 43.6187C141.275 38.44 141.554 29.9919 136.084 24.7497C132.262 21.0873 122.082 13.9519 122.082 7.92383" stroke="#6A30A5" stroke-width="5" stroke-linecap="square"/>
<path d="M145.878 39.292C142.486 35.4756 146.441 25.8669 146.479 21.6249C146.525 16.6166 145.396 12.6154 146.96 7.92383" stroke="#6A30A5" stroke-width="5" stroke-linecap="square"/>
<path d="M146.96 39.2922C153.591 31.1872 157.46 16.1944 167.512 11.1689" stroke="#6A30A5" stroke-width="5" stroke-linecap="square"/>
<path d="M237.819 43.6189C232.077 37.2389 228.859 24.8921 225.32 17.1783C224.4 15.1719 219.33 10.0874 222.676 10.0874" stroke="#6A30A5" stroke-width="5" stroke-linecap="square"/>
<path d="M237.82 41.4555C237.82 51.5574 234.384 2.13362 238.901 11.169" stroke="#6A30A5" stroke-width="5" stroke-linecap="square"/>
<path d="M239.983 39.2919C240.683 32.2892 250.693 23.3993 254.525 17.7789C256.704 14.5838 259.556 12.0959 261.616 9.00537" stroke="#6A30A5" stroke-width="5" stroke-linecap="square"/>
<path d="M322.189 43.6189C322.189 37.5549 317.662 31.3276 315.218 25.9518C313.85 22.9413 306.599 11.3807 309.209 12.2507" stroke="#6A30A5" stroke-width="5" stroke-linecap="square"/>
<path d="M326.516 41.4557C320.233 40.7576 325.779 10.7773 326.516 12.2508" stroke="#6A30A5" stroke-width="5" stroke-linecap="square"/>
<path d="M325.434 41.4553C325.434 33.1642 333.08 25.361 338.414 19.8221C342.076 16.0193 343.226 12.063 345.986 7.92383" stroke="#6A30A5" stroke-width="5" stroke-linecap="square"/>
<path d="M411.967 43.6187C408.31 39.9612 387.042 12.2978 387.089 12.2505" stroke="#6A30A5" stroke-width="5" stroke-linecap="square"/>
<path d="M408.722 40.3736C408.722 50.4949 406.559 -0.0340776 406.559 10.0871" stroke="#6A30A5" stroke-width="5" stroke-linecap="square"/>
<path d="M409.804 40.3738C406.674 35.9034 423.535 6.84229 429.274 6.84229" stroke="#6A30A5" stroke-width="5" stroke-linecap="square"/>
<path d="M494.173 41.4553C492.938 41.3009 491.609 38.9734 490.928 37.97C486.787 31.867 481.821 27.0864 476.266 22.2258C474.884 21.017 466.976 11.9387 468.213 14.4138" stroke="#6A30A5" stroke-width="5" stroke-linecap="square"/>
<path d="M490.928 42.5369C488.377 42.218 489.847 14.6767 489.847 9.00537" stroke="#6A30A5" stroke-width="5" stroke-linecap="square"/>
<path d="M490.928 41.4555C491.587 33.5511 496.565 25.9451 500.904 19.582C502.716 16.9237 504.112 11.101 507.153 10.0874" stroke="#6A30A5" stroke-width="5" stroke-linecap="square"/>
<path d="M563.4 41.4557C562.006 41.2815 561.047 37.6747 560.575 36.468C557.365 28.264 551.115 21.9077 548.256 13.3325" stroke="#6A30A5" stroke-width="5" stroke-linecap="square"/>
<path d="M563.399 40.374C563.399 40.4255 563.876 34.3088 563.64 32.0813C563.097 26.9638 563.004 16.4809 567.726 13.3325" stroke="#6A30A5" stroke-width="5" stroke-linecap="square"/>
<path d="M562.318 36.0469C568.145 28.7636 570.135 13.7499 579.624 9.00537" stroke="#6A30A5" stroke-width="5" stroke-linecap="square"/>
<path d="M622.891 41.4557C622.167 35.661 609.378 14.1397 610.993 13.3325" stroke="#6A30A5" stroke-width="5" stroke-linecap="square"/>
<path d="M621.81 37.1288C625.75 28.8094 622.634 19.1906 627.218 11.1689" stroke="#6A30A5" stroke-width="5" stroke-linecap="square"/>
<path d="M622.891 34.9656C627.694 25.3596 637.015 20.0378 641.279 10.0874" stroke="#6A30A5" stroke-width="5" stroke-linecap="square"/>
<path d="M619.646 45.782C619.713 45.3133 634.219 54.7677 635.51 55.6371C636.979 56.6261 644.294 63.3185 644.524 63.0886" stroke="#6A30A5" stroke-width="5" stroke-linecap="square"/>
<path d="M622.891 43.6187C623.583 49.152 650.268 43.2072 652.096 46.8636" stroke="#6A30A5" stroke-width="5" stroke-linecap="square"/>
<path d="M626.136 42.5371C625.806 42.16 646.865 26.9835 649.933 25.2305" stroke="#6A30A5" stroke-width="5" stroke-linecap="square"/>
<path d="M617.483 67.4155C617.483 71.7264 628.599 78.3974 631.364 80.756C635.002 83.8591 642.425 87.0138 644.524 91.2121" stroke="#6A30A5" stroke-width="5" stroke-linecap="square"/>
<path d="M618.564 94.457C627.785 94.457 636.615 97.702 645.606 97.702" stroke="#6A30A5" stroke-width="5" stroke-linecap="square"/>
<path d="M614.238 121.498C614.458 123.039 616.073 120.643 616.401 120.176C619.627 115.592 623.135 112.603 627.939 109.54C635.105 104.971 638.23 101.736 642.361 95.5386" stroke="#6A30A5" stroke-width="5" stroke-linecap="square"/>
<path d="M620.728 150.703C620.033 150.703 632.978 141.955 633.768 141.389C638.669 137.877 642.714 133.761 647.769 131.233" stroke="#6A30A5" stroke-width="5" stroke-linecap="square"/>
<path d="M623.973 147.458C630.257 147.458 636.487 151.853 641.88 154.549C643.79 155.504 651.874 159.995 651.014 158.275" stroke="#6A30A5" stroke-width="5" stroke-linecap="square"/>
<path d="M621.81 147.458C622.385 152.636 636.433 159.986 639.597 163.082C642.15 165.581 646.602 168.835 647.769 172.337" stroke="#6A30A5" stroke-width="5" stroke-linecap="square"/>
<path d="M615.319 169.091C615.524 170.732 618.47 171.958 619.646 172.937C625.653 177.943 631.344 183.628 637.193 188.862C638.726 190.233 645.514 197.169 643.442 196.133" stroke="#6A30A5" stroke-width="5" stroke-linecap="square"/>
<path d="M617.483 196.133C626.165 197.097 638.259 196.643 645.606 201.541" stroke="#6A30A5" stroke-width="5" stroke-linecap="square"/>
<path d="M614.238 223.175C614.783 227.539 625.745 214.31 625.776 214.281C630.292 209.906 636.397 207.505 640.739 203.164C641.338 202.564 642.361 200.343 642.361 201.541" stroke="#6A30A5" stroke-width="5" stroke-linecap="square"/>
<path d="M618.564 256.706C629.628 255.477 637.06 235.073 647.769 235.073" stroke="#6A30A5" stroke-width="5" stroke-linecap="square"/>
<path d="M620.728 248.053C621.839 251.388 634.804 252.489 637.433 253.461C641.499 254.964 643.559 258.898 647.769 259.951" stroke="#6A30A5" stroke-width="5" stroke-linecap="square"/>
<path d="M620.728 252.379C632.927 256.602 661.224 284.223 652.096 275.094" stroke="#6A30A5" stroke-width="5" stroke-linecap="square"/>
<path d="M619.646 275.094C613.625 269.825 629.609 287.733 635.631 293.002C639.619 296.491 645.606 310.68 645.606 305.381" stroke="#6A30A5" stroke-width="5" stroke-linecap="square"/>
<path d="M619.646 305.381C618.122 303.421 642.211 303.517 644.524 298.891" stroke="#6A30A5" stroke-width="5" stroke-linecap="square"/>
<path d="M615.319 325.933C614.924 329.098 624.296 320.545 625.655 319.082C629.431 315.018 636.698 306.59 641.279 304.299" stroke="#6A30A5" stroke-width="5" stroke-linecap="square"/>
<path d="M621.809 349.729C619.967 349.499 632.469 344.021 633.768 343.059C637.066 340.616 645.846 335.187 647.769 331.341" stroke="#6A30A5" stroke-width="5" stroke-linecap="square"/>
<path d="M626.136 347.565C634.512 348.403 642.168 352.974 651.014 352.974" stroke="#6A30A5" stroke-width="5" stroke-linecap="square"/>
<path d="M627.218 348.647C633.247 354.342 645.222 357.614 648.851 364.872" stroke="#6A30A5" stroke-width="5" stroke-linecap="square"/>
<path d="M617.483 365.954C618.083 371.355 633.295 378.971 636.893 381.277C639.431 382.904 641.166 386.449 643.443 387.587" stroke="#6A30A5" stroke-width="5" stroke-linecap="square"/>
<path d="M619.646 385.424C617.225 383.002 625.338 389.521 628.66 390.351C634.866 391.903 643.39 391.347 648.851 394.077" stroke="#6A30A5" stroke-width="5" stroke-linecap="square"/>
<path d="M617.483 403.812C618.698 409.279 641.406 389.75 646.688 389.75" stroke="#6A30A5" stroke-width="5" stroke-linecap="square"/>
<path d="M617.483 426.527C617.594 426.081 633.591 420.964 634.189 420.698C637.579 419.185 647.769 419.197 647.769 414.628" stroke="#6A30A5" stroke-width="5" stroke-linecap="square"/>
<path d="M617.483 426.527C615.767 426.741 630.534 431.608 632.145 431.935C633.573 432.225 649.533 437.743 649.932 437.343" stroke="#6A30A5" stroke-width="5" stroke-linecap="square"/>
<path d="M618.564 428.69C626.251 436.378 641.817 439.5 646.688 449.242" stroke="#6A30A5" stroke-width="5" stroke-linecap="square"/>
<path d="M578.543 466.548C583.546 462.101 588.158 458.581 592.965 453.268C596.503 449.358 599.86 442.91 604.503 440.588" stroke="#6A30A5" stroke-width="5" stroke-linecap="square"/>
<path d="M605.585 436.262C606.658 427.675 601.715 469.961 605.585 462.222" stroke="#6A30A5" stroke-width="5" stroke-linecap="square"/>
<path d="M606.666 431.935C606.666 424.429 614.447 444.869 619.406 450.504C622.352 453.852 624.224 458.146 627.218 461.14" stroke="#6A30A5" stroke-width="5" stroke-linecap="square"/>
<path d="M551.501 431.935C550.342 432.95 562.374 450.435 565.563 456.813" stroke="#6A30A5" stroke-width="5" stroke-linecap="square"/>
<path d="M563.399 458.977C563.399 450.36 567.205 440.549 570.971 433.017" stroke="#6A30A5" stroke-width="5" stroke-linecap="square"/>
<path d="M567.726 460.058C571.062 459.317 578.296 445.994 579.985 443.533C581.829 440.846 588.278 435.174 588.278 431.935" stroke="#6A30A5" stroke-width="5" stroke-linecap="square"/>
<path d="M535.276 435.18C533.773 433.677 537.264 440.171 537.68 440.829C540.086 444.638 548.021 465.467 550.42 465.467" stroke="#6A30A5" stroke-width="5" stroke-linecap="square"/>
<path d="M537.44 439.507C536.484 431.859 533.113 469.93 533.113 462.222" stroke="#6A30A5" stroke-width="5" stroke-linecap="square"/>
<path d="M522.296 463.303C516.694 462.681 521.894 458.971 523.378 457.414C529.665 450.82 534.222 442.724 540.685 436.262" stroke="#6A30A5" stroke-width="5" stroke-linecap="square"/>
<path d="M483.357 433.017C479.301 429.412 489.27 440.985 489.967 442.03C492.597 445.975 495.906 457.391 500.663 458.977" stroke="#6A30A5" stroke-width="5" stroke-linecap="square"/>
<path d="M497.418 461.14C497.418 452.375 495.287 438.021 500.663 430.854" stroke="#6A30A5" stroke-width="5" stroke-linecap="square"/>
<path d="M498.5 460.058C499.164 447.435 508.73 440.094 516.888 431.935" stroke="#6A30A5" stroke-width="5" stroke-linecap="square"/>
<path d="M457.397 430.854C455.027 431.15 470.659 458.744 472.54 464.385" stroke="#6A30A5" stroke-width="5" stroke-linecap="square"/>
<path d="M456.315 465.467C456.315 457.326 452.858 437.555 458.478 431.935" stroke="#6A30A5" stroke-width="5" stroke-linecap="square"/>
<path d="M440.09 465.467C434.772 464.802 457.846 440.139 460.642 437.343" stroke="#6A30A5" stroke-width="5" stroke-linecap="square"/>
<path d="M401.15 430.854C400.838 430.943 415.655 456.592 417.375 455.732" stroke="#6A30A5" stroke-width="5" stroke-linecap="square"/>
<path d="M415.212 458.977C415.745 449.384 415.825 437.902 418.457 428.69" stroke="#6A30A5" stroke-width="5" stroke-linecap="square"/>
<path d="M417.375 462.222C421.826 456.782 424.635 449.094 428.793 443.233C431.329 439.657 436.538 435.02 437.927 430.854" stroke="#6A30A5" stroke-width="5" stroke-linecap="square"/>
<path d="M349.23 462.222C349.23 463.718 350.042 459.982 350.312 459.457C351.91 456.35 355.684 454.788 358.364 452.847C363.383 449.213 370.953 443.566 373.027 437.343" stroke="#6A30A5" stroke-width="5" stroke-linecap="square"/>
<path d="M374.109 431.935C375.01 425.629 375.285 444.631 376.272 450.925C377.067 455.989 374.506 461.061 379.517 460.059" stroke="#6A30A5" stroke-width="5" stroke-linecap="square"/>
<path d="M376.272 434.099C374.53 434.348 387.693 449.342 389.072 450.564C392.962 454.012 397.462 456.37 401.151 460.059" stroke="#6A30A5" stroke-width="5" stroke-linecap="square"/>
<path d="M311.373 439.507C308.101 439.098 300.197 424.604 301.097 424.604C302.277 424.604 312.936 441.713 313.776 443.713C315.75 448.413 317.071 459.663 322.189 462.222" stroke="#6A30A5" stroke-width="5" stroke-linecap="square"/>
<path d="M323.271 466.549C323.271 454.628 325.434 418.934 325.434 430.854" stroke="#6A30A5" stroke-width="5" stroke-linecap="square"/>
<path d="M325.434 463.303C326.917 449.956 345.162 443.06 349.231 430.854" stroke="#6A30A5" stroke-width="5" stroke-linecap="square"/>
<path d="M282.168 427.608C281.548 438.774 265.268 468.979 270.27 458.977" stroke="#6A30A5" stroke-width="5" stroke-linecap="square"/>
<path d="M281.086 427.608C281.338 432.406 288.844 458.343 289.739 457.895" stroke="#6A30A5" stroke-width="5" stroke-linecap="square"/>
<path d="M283.25 433.017C285.112 439.846 293.601 448.5 297.612 454.23C300.668 458.596 303.636 461.69 308.128 464.385" stroke="#6A30A5" stroke-width="5" stroke-linecap="square"/>
<path d="M223.758 429.772C232.809 439.828 234.813 456.41 243.228 467.63" stroke="#6A30A5" stroke-width="5" stroke-linecap="square"/>
<path d="M250.799 466.548C250.799 458.026 248.13 449.691 247.614 441.19C247.461 438.654 248.93 431.001 246.473 429.772" stroke="#6A30A5" stroke-width="5" stroke-linecap="square"/>
<path d="M245.391 469.793C241.086 464.951 254.355 449.323 256.508 445.816C259.03 441.709 261.695 429.733 265.943 427.608" stroke="#6A30A5" stroke-width="5" stroke-linecap="square"/>
<path d="M202.125 428.69C202.125 441.76 224.195 476.075 218.349 464.385" stroke="#6A30A5" stroke-width="5" stroke-linecap="square"/>
<path d="M199.961 429.772C199.961 440.589 196.541 472.483 199.961 462.222" stroke="#6A30A5" stroke-width="5" stroke-linecap="square"/>
<path d="M171.838 465.467C171.035 465.567 174.886 461.334 177.727 458.075C182.955 452.079 189.416 447.364 194.313 441.069C195.363 439.719 196.392 438.046 197.798 437.343" stroke="#6A30A5" stroke-width="5" stroke-linecap="square"/>
<path d="M135.062 431.935C130.901 428.237 136.257 436.574 136.684 437.524C139.436 443.638 144.797 456.882 144.797 462.222" stroke="#6A30A5" stroke-width="5" stroke-linecap="square"/>
<path d="M148.042 464.385C148.042 459.271 151.425 430.854 155.613 430.854" stroke="#6A30A5" stroke-width="5" stroke-linecap="square"/>
<path d="M149.124 461.14C149.6 452.091 157.352 446.691 163.546 441.069C167.608 437.381 169.92 432.108 172.92 427.608" stroke="#6A30A5" stroke-width="5" stroke-linecap="square"/>
<path d="M112.347 428.69C113.569 440.298 121.693 452.791 126.408 462.222" stroke="#6A30A5" stroke-width="5" stroke-linecap="square"/>
<path d="M111.265 429.772C110.639 435.403 109.52 461.472 112.347 460.058" stroke="#6A30A5" stroke-width="5" stroke-linecap="square"/>
<path d="M96.122 463.304C90.6613 462.621 98.6376 459.384 98.8262 459.277C105.891 455.285 109.839 440.195 113.429 433.017" stroke="#6A30A5" stroke-width="5" stroke-linecap="square"/>
<path d="M62.5905 424.364C57.8453 429.702 78.1939 451.451 82.0604 457.895" stroke="#6A30A5" stroke-width="5" stroke-linecap="square"/>
<path d="M80.9785 460.058C77.8694 459.67 78.8358 425.404 80.9785 421.119" stroke="#6A30A5" stroke-width="5" stroke-linecap="square"/>
<path d="M79.897 457.895C81.1041 447.031 85.9394 433.036 92.8769 424.364" stroke="#6A30A5" stroke-width="5" stroke-linecap="square"/>
<path d="M22.5688 462.222C22.5688 463.854 23.5841 459.806 23.6505 459.458C24.7268 453.807 29.8243 449.147 33.3855 444.915C36.2166 441.551 40.8818 438.31 42.5195 434.099C43.2057 432.334 42.5694 430.588 44.2021 429.772" stroke="#6A30A5" stroke-width="5" stroke-linecap="square"/>
<path d="M42.0388 425.445C37.9443 426.615 45.516 455.499 42.0388 458.977" stroke="#6A30A5" stroke-width="5" stroke-linecap="square"/>
<path d="M43.1206 422.2C43.5702 430.742 50.1426 439.276 52.7354 447.379C53.336 449.256 56.1005 455.956 56.1005 455.732" stroke="#6A30A5" stroke-width="5" stroke-linecap="square"/>
<path d="M9.58887 399.485C11.3106 405.799 27.1115 419.55 33.3855 421.119" stroke="#6A30A5" stroke-width="5" stroke-linecap="square"/>
<path d="M5.26221 424.363C8.05468 422.409 19.625 424.135 23.1697 423.522C26.6946 422.913 32.5419 423.704 35.5487 422.2" stroke="#6A30A5" stroke-width="5" stroke-linecap="square"/>
<path d="M9.58887 441.67C9.73108 442.666 16.5378 436.234 17.461 435.481C22.3812 431.467 27.9208 427.702 31.2221 422.2" stroke="#6A30A5" stroke-width="5" stroke-linecap="square"/>
<path d="M11.7524 381.097C7.10282 381.388 22.4133 388.567 24.1915 389.69C27.5384 391.804 35.5618 398.404 39.8756 398.404" stroke="#6A30A5" stroke-width="5" stroke-linecap="square"/>
<path d="M10.6705 380.016C6.76389 380.016 18.6254 380.058 22.3284 378.814C30.8594 375.946 39.2197 368.756 45.2836 377.852" stroke="#6A30A5" stroke-width="5" stroke-linecap="square"/>
<path d="M11.7524 378.934C23.6279 377.614 26.6528 356.219 39.8757 356.219" stroke="#6A30A5" stroke-width="5" stroke-linecap="square"/>
<path d="M4.18066 348.647C5.76742 347.378 7.83044 347.456 9.58895 346.484C14.4467 343.799 17.0582 338.053 20.8863 334.225C25.8645 329.247 30.6507 331.211 34.4672 324.851" stroke="#6A30A5" stroke-width="5" stroke-linecap="square"/>
<path d="M6.34424 323.769C12.3528 323.769 33.4194 332.389 36.6308 329.177" stroke="#6A30A5" stroke-width="5" stroke-linecap="square"/>
<path d="M9.58894 298.891C8.39423 299.04 29.913 324.396 32.3038 329.178" stroke="#6A30A5" stroke-width="5" stroke-linecap="square"/>
<path d="M16.0788 276.176C14.019 271.174 17.4399 273.926 19.5642 276.657C22.1223 279.946 43.1252 297.804 44.202 296.728" stroke="#6A30A5" stroke-width="5" stroke-linecap="square"/>
<path d="M18.2422 271.849C16.666 270.273 19.236 273.468 19.5642 273.772C21.8562 275.894 24.6963 274.483 27.3762 274.253C32.9194 273.778 38.6029 276.409 43.1204 279.421" stroke="#6A30A5" stroke-width="5" stroke-linecap="square"/>
<path d="M19.3237 271.85C19.7488 268.024 28.7188 264.438 31.222 262.054C34.2125 259.206 37.4586 254.543 42.0386 254.543" stroke="#6A30A5" stroke-width="5" stroke-linecap="square"/>
<path d="M11.7524 245.889C18.5551 245.889 24.0885 232.082 29.9003 228.282C33.1689 226.145 36.6466 224.245 39.8757 222.093" stroke="#6A30A5" stroke-width="5" stroke-linecap="square"/>
<path d="M10.6705 218.848C10.4396 218.881 19.2897 219.933 21.7274 219.689C24.4782 219.414 38.2082 219.841 37.712 218.848" stroke="#6A30A5" stroke-width="5" stroke-linecap="square"/>
<path d="M8.50732 198.297C8.53613 198.21 35.5488 223.386 35.5488 219.93" stroke="#6A30A5" stroke-width="5" stroke-linecap="square"/>
<path d="M10.6707 176.663C9.18138 176.663 13.3062 176.632 13.9157 176.663C18.9481 176.915 24.0785 182.596 27.8571 185.196C29.6698 186.443 43.4948 195.759 45.2838 193.97" stroke="#6A30A5" stroke-width="5" stroke-linecap="square"/>
<path d="M11.7524 172.336C17.8849 172.336 43.2559 175.311 44.2023 173.418" stroke="#6A30A5" stroke-width="5" stroke-linecap="square"/>
<path d="M14.9971 174.5C14.9971 169.667 23.891 163.473 26.7752 160.138C31.392 154.8 35.7541 150.601 42.0386 147.458" stroke="#6A30A5" stroke-width="5" stroke-linecap="square"/>
<path d="M8.50732 142.05C16.242 142.05 30.6332 123.269 34.4672 125.825" stroke="#6A30A5" stroke-width="5" stroke-linecap="square"/>
<path d="M10.6709 125.825C14.9077 125.296 19.4768 123.663 24.3118 124.383C26.4219 124.697 39.8758 128.47 39.8758 131.234" stroke="#6A30A5" stroke-width="5" stroke-linecap="square"/>
<path d="M7.42588 103.11C4.37621 104.635 22.1361 113.002 23.17 113.987C25.7561 116.45 33.2642 121.256 34.4674 123.662" stroke="#6A30A5" stroke-width="5" stroke-linecap="square"/>
<path d="M9.5888 78.2319C8.03311 78.2319 11.5821 78.2167 11.9925 78.2319C19.0251 78.4923 24.9281 87.1708 29.7197 91.3319C31.5819 92.9491 39.7207 103.419 42.0386 98.7834" stroke="#6A30A5" stroke-width="5" stroke-linecap="square"/>
<path d="M14.9975 80.3951C13.0464 80.1512 25.1006 80.8455 27.1361 80.8758C32.11 80.9501 45.284 86.7052 45.284 80.3951" stroke="#6A30A5" stroke-width="5" stroke-linecap="square"/>
<path d="M16.079 76.0684C14.468 76.0684 17.6793 76.1018 18.002 76.0684C22.58 75.5948 27.3558 70.0613 31.4627 68.1362C37.1186 65.485 43.6924 63.9795 49.6106 62.0068" stroke="#6A30A5" stroke-width="5" stroke-linecap="square"/>
<path d="M9.58894 56.5987C7.0024 53.2732 34.9003 49.4594 38.7938 46.8638" stroke="#6A30A5" stroke-width="5" stroke-linecap="square"/>
<path d="M8.50732 28.4756C15.6012 35.5697 31.3731 39.594 35.5488 47.9455" stroke="#6A30A5" stroke-width="5" stroke-linecap="square"/>
</svg>
