<svg width="658" height="471" viewBox="0 0 658 471" fill="none" xmlns="http://www.w3.org/2000/svg">
<path d="M5.50651 10.9847C5.50651 -22.5544 6.11817 78.0612 6.11817 111.6C6.11817 126.525 5.50651 141.63 5.50651 156.59C5.50651 176.737 4.9471 196.971 5.50651 217.109C5.96032 233.446 7.34144 249.579 7.34144 266.041C7.34144 290.473 4.28324 314.988 4.28324 339.438C4.28324 363.485 4.28324 387.531 4.28324 411.578C4.28324 423.266 4.89487 434.9 4.89487 446.612C4.89487 449.475 2.42964 466.246 5.50651 467.272" stroke="#6A30A5" stroke-width="5" stroke-linecap="square"/>
<path d="M44.6518 47.0713C43.0957 34.6232 45.4975 72.1472 45.841 84.6875C47.1716 133.255 42.4908 181.782 43.7683 230.327C44.9684 275.932 42.2052 321.241 42.2052 366.826C42.2052 381.839 42.0991 397.705 44.3119 412.563C44.5543 414.19 45.009 424.965 45.2634 424.456" stroke="#6A30A5" stroke-width="5" stroke-linecap="square"/>
<path d="M651.403 9.76138C649.771 -3.30025 651.639 36.0885 652.015 49.2464C652.205 55.9112 654.288 63.5057 653.102 70.1783C652.184 75.3429 652.433 80.8937 653.102 86.081C654.019 93.1842 652.541 100.416 653.102 107.557C654.279 122.514 653.238 138.144 653.238 153.226C653.238 169.72 652.627 186.183 652.627 202.701C652.627 226.111 652.501 249.559 652.015 272.905C651.203 311.851 652.627 350.487 652.627 389.457C652.627 405.817 653.482 422.226 653.85 438.388C653.991 444.62 653.238 450.757 653.238 456.874C653.238 459.103 651.039 463.114 653.238 464.213" stroke="#6A30A5" stroke-width="5" stroke-linecap="square"/>
<path d="M612.87 45.2368C612.364 45.2368 614.093 72.5288 614.093 76.5666C614.093 84.0079 614.093 91.5497 614.093 98.7897C614.093 104.279 615.427 112.198 613.787 117.445C612.748 120.772 613.578 124.946 613.482 128.421C613.347 133.254 612.87 138.105 612.87 143.032C612.87 150.226 613.482 157.465 613.482 164.576C613.482 182.013 612.87 199.514 612.87 216.973C612.87 251.786 613.482 286.884 613.482 321.7C613.482 330.75 613.482 339.8 613.482 348.85C613.482 353.231 612.807 358.398 613.617 362.68C614.269 366.124 614.628 371.114 613.821 374.608C612.759 379.213 615.02 384.809 613.957 389.593C612.829 394.669 613.482 400.293 613.482 405.496C613.482 412.183 612.258 418.97 612.258 425.68" stroke="#6A30A5" stroke-width="5" stroke-linecap="square"/>
<path d="M9.78799 4.25663C5.98276 6.04733 10.7872 2.75316 12.2346 4.56245C13.2655 5.85116 19.2196 4.93176 20.9335 4.86828C31.2632 4.48569 41.9779 5.86353 52.4672 6.09156C58.6959 6.22697 64.3551 7.07727 70.6466 6.73719C74.1194 6.54948 77.9154 6.49429 81.3164 5.78574C85.3266 4.95028 89.8893 6.37789 94.059 5.95564C108.469 4.4964 123.226 8.18481 137.69 7.28087C151.531 6.41581 166.286 7.75577 180.131 8.50417C197.206 9.42715 214.146 8.53815 231.203 8.53815C239.309 8.53815 247.35 7.31485 255.363 7.31485C262.803 7.31485 270.148 7.9265 277.552 7.9265C294.161 7.9265 310.924 6.70321 327.537 6.70321C355.954 6.70321 384.128 10.1382 412.318 8.57213C446.148 6.69275 480.35 9.07638 514.259 8.53815C541.122 8.11175 567.955 7.9265 594.826 7.9265C600.71 7.9265 606.462 7.9265 612.258 7.9265C618.126 7.9265 624.527 8.96344 630.268 8.50417C635.039 8.12246 639.784 8.53815 644.675 8.53815C647.074 8.53815 652.061 9.73106 653.85 8.53815" stroke="#6A30A5" stroke-width="5" stroke-linecap="square"/>
<path d="M41.5935 46.4601C87.3963 46.4601 133.141 46.4601 179.078 46.4601C233.058 46.4601 286.989 45.8485 340.994 45.8485C363.715 45.8485 386.183 45.2368 408.886 45.2368C432.328 45.2368 455.733 46.4601 479.225 46.4601C503.49 46.4601 527.937 47.0718 552.351 47.0718C564.969 47.0718 577.587 47.0718 590.205 47.0718C597.947 47.0718 609.243 48.2806 616.54 45.8485" stroke="#6A30A5" stroke-width="5" stroke-linecap="square"/>
<path d="M7.95312 467.271C7.95312 463.078 127.345 466.161 136.976 467.577C149.755 469.456 163.322 467.271 176.121 467.271C191.162 467.271 205.96 466.876 221.043 467.849C256 470.104 290.984 465.436 326.008 465.436C385.595 465.436 445.221 465.436 504.677 465.436C519.406 465.436 534.1 466.66 548.919 466.66C563.008 466.66 576.857 466.66 590.986 466.66C611.451 466.66 631.994 467.883 652.627 467.883" stroke="#6A30A5" stroke-width="5" stroke-linecap="square"/>
<path d="M45.875 425.68C45.875 425.066 46.813 426.126 47.4041 426.258C48.463 426.493 49.8171 426.332 50.9041 426.291C54.1694 426.171 56.6681 425.79 59.9428 426.258C66.9475 427.258 74.2773 426.903 81.3844 426.903C101.565 426.903 122.102 425.875 142.175 427.481C152.821 428.332 165.358 428.628 175.883 427.039C186.028 425.508 197.732 427.85 207.961 428.126C230.36 428.732 252.893 428.397 275.378 428.738C291.335 428.98 307.234 428.126 323.154 428.126C336.689 428.126 350.29 428.126 363.862 428.126C392.997 428.126 422.188 429.961 451.429 429.961C504.988 429.961 558.618 429.961 612.258 429.961" stroke="#6A30A5" stroke-width="5" stroke-linecap="square"/>
<path d="M3.05989 464.825C2.25107 464.825 9.90019 458.516 9.99186 458.437C14.8048 454.288 17.3438 447.655 22.0209 443.757C25.6051 440.77 32.789 436.845 35.0013 432.748C36.0445 430.816 40.3361 423.414 42.8168 425.068" stroke="#6A30A5" stroke-width="5" stroke-linecap="square"/>
<path d="M4.89478 5.47993C5.0763 4.02775 7.62568 7.59588 8.05494 7.99448C11.2163 10.93 15.2876 13.2435 17.6034 16.9653C21.2893 22.889 24.8165 27.11 30.0062 31.7807C35.2365 36.4879 38.936 41.5618 44.6517 45.8485" stroke="#6A30A5" stroke-width="5" stroke-linecap="square"/>
<path d="M609.2 47.6833C613.858 47.6833 618.041 42.4811 620.345 38.9844C624.044 33.3729 631.239 31.2738 634.583 25.3583C637.343 20.476 642.868 16.5898 647.36 13.4652C649.025 12.3067 651.553 8.37724 652.015 9.76133" stroke="#6A30A5" stroke-width="5" stroke-linecap="square"/>
<path d="M610.423 430.573C608.689 428.622 611.436 431.338 612.258 431.932C614.848 433.802 617.089 435.827 618.986 438.388C622.584 443.245 629.854 445.722 634.142 450.01C639.66 455.528 645.644 462.557 652.627 466.048" stroke="#6A30A5" stroke-width="5" stroke-linecap="square"/>
<path d="M23.5591 417.369C23.2247 417.411 22.8886 400.568 22.9644 396.553C23.254 381.206 21.1802 365.863 21.1802 350.461C21.1802 332.333 21.7749 314.274 21.7749 296.175C21.7749 274.801 22.9644 253.427 22.9644 232.108C22.9644 197.349 24.7486 162.604 24.7486 127.864C24.7486 119.746 26.1541 111.48 25.2112 103.348C24.4582 96.8531 24.1287 89.6226 24.7816 83.0934C25.372 77.1902 25.5993 71.4347 26.4998 65.5817C26.9755 62.4895 24.3893 58.6307 25.3433 55.7686" stroke="#6A30A5" stroke-width="5" stroke-linecap="square"/>
<path d="M632.571 52.7947C632.708 52.6385 632.571 54.2364 632.571 56.3632C632.571 59.1496 632.571 61.9361 632.571 64.7225C632.571 70.1227 633.166 75.7813 633.166 81.3091C633.166 94.9006 632.047 110.665 634.223 124.031C634.781 127.463 634.103 132.185 634.322 135.794C634.661 141.382 633.881 147.071 634.388 152.645C634.955 158.878 634.95 165.458 634.95 171.808C634.95 192.477 634.95 213.138 634.95 233.892C634.95 254.885 634.355 275.78 634.355 296.769C634.355 316.205 634.355 335.922 634.355 355.516C634.355 372.736 633.145 389.901 633.76 407.126C633.88 410.473 634.355 413.884 634.355 417.369C634.355 421.053 632.702 425.297 634.95 428.669" stroke="#6A30A5" stroke-width="5" stroke-linecap="square"/>
<path d="M42.5908 447.701C42.8668 445.493 72.2394 448.22 74.5745 448.296C85.1863 448.638 94.8764 449.685 105.633 448.428C117.283 447.066 129.978 448.909 141.648 449.452C156.199 450.129 171.011 449.094 185.625 449.518C193.964 449.76 202.312 450.921 210.67 451.236C219.495 451.569 228.262 450.674 237.07 450.674C254.34 450.674 271.273 449.589 288.482 448.857C301.541 448.302 314.211 449.485 327.206 449.485C352.405 449.485 377.579 449.485 402.738 449.485C417.147 449.485 431.563 450.536 445.955 450.674C459.09 450.801 472.256 449.485 485.439 449.485C497.784 449.485 510.187 450.08 522.544 450.08C537.849 450.08 553.122 449.485 568.405 449.485C577.8 449.485 587.194 449.485 596.589 449.485C599.608 449.485 607.564 447.957 609.376 450.674" stroke="#6A30A5" stroke-width="5" stroke-linecap="square"/>
<path d="M45.5645 25.4371C59.5291 25.4371 73.9864 25.4371 88.1212 25.4371C92.7663 25.4371 97.456 25.615 102.098 25.404C107.293 25.1679 112.695 23.3298 117.858 23.6859C128.36 24.4102 138.751 23.6529 149.181 23.6529C158.552 23.6529 167.744 22.4634 177.134 22.4634C187.883 22.4634 198.767 23.8798 209.514 24.5119C239.338 26.2663 269.108 22.3307 298.923 23.6859C326.748 24.9507 354.181 27.5127 382.054 25.3049C409.957 23.0948 438.295 22.6685 466.275 23.6859C493.323 24.6694 520.651 24.2385 547.721 26.4944C560.074 27.5238 572.749 26.7973 584.992 25.4371C594.075 24.4279 603.323 24.9423 612.35 23.6529" stroke="#6A30A5" stroke-width="5" stroke-linecap="square"/>
</svg>
