<svg width="639" height="163" viewBox="0 0 639 163" fill="none" xmlns="http://www.w3.org/2000/svg">
<g filter="url(#filter0_d_1_7)">
<path d="M66.6893 62.8284C33.0507 43.0411 98.8015 -14.8011 112.896 25.8092C119.86 45.8748 93.3558 59.3495 77.2276 56.6135C67.8219 55.0179 49.0241 48.2418 48.8552 36.0773C48.693 24.4042 66.2204 19.0349 74.9983 17.8379C93.9699 15.2509 120.877 28.7799 116.273 51.3443C109.072 86.6456 73.647 94.9029 47.7068 72.7587C23.144 51.7905 37.671 26.3623 62.2307 14.4602C75.7336 7.91656 91.0814 4.88754 101.074 18.581C111.514 32.888 115.856 53.7628 107.897 70.1242C96.8159 92.9015 63.02 119.026 37.844 101.672C10.6529 82.9282 53.9999 51.3467 71.5531 45.6699C92.2389 38.98 113.628 53.8449 96.4803 74.1773C81.7635 91.6273 30.1873 110.75 14.7408 84.3779C2.08925 62.7778 48.1477 38.0114 64.2573 36.7528C79.3256 35.5756 97.4298 45.264 105.465 57.9646C112.642 69.3092 106.101 83.6353 98.1691 92.687C78.9955 114.567 32.4803 119.584 12.3764 95.7268C-5.85846 74.0881 26.4402 39.5241 47.4366 34.456C69.8489 29.0462 112.812 58.5727 108.302 84.0401C103.083 113.513 62.0449 101.165 45.6126 91.471C26.6368 80.2766 -2.71889 45.4726 28.0488 28.9167C52.281 15.8774 94.7471 29.9041 96.5478 60.3965C98.1807 88.0464 66.426 101.381 43.1807 93.6327C16.7714 84.8296 21.2074 61.9621 37.7764 46.2103C56.7173 28.2038 90.6538 14.4529 103.911 47.4263C114.2 73.0164 77.2697 95.7024 56.4887 97.1455C44.2707 97.994 27.2876 94.6641 18.4562 85.3912C7.78052 74.1817 18.7376 58.252 26.8328 49.4529C45.3472 29.3286 72.4047 12.6039 98.9797 28.106C122.599 41.8841 117.144 69.0388 95.8723 83.3646C79.9387 94.0954 50.4409 68.7311 72.6339 58.0997C84.4238 52.4518 113.27 46.9983 125.866 51.547C132.82 54.0582 125.323 61.9116 122.488 64.3146C111.325 73.7795 96.3002 80.6194 82.0239 83.4997C73.6913 85.1809 49.8443 84.9215 62.636 71.3401C67.4243 66.2563 100.977 50.4695 105.735 59.721C108.737 65.5585 85.7226 75.4566 82.4292 76.6093C68.7041 81.4131 49.9873 68.7077 48.585 54.0465C47.6805 44.5907 55.6407 32.5633 65.8111 32.9023C85.511 33.559 105.995 59.2239 97.2233 77.8928C76.2807 122.463 9.24929 77.3902 17.8482 37.5635C28.6859 -12.6318 101.65 65.0901 108.167 87.1476C111.741 99.2455 100.787 115.355 87.4281 112.48C63.1959 107.266 42.0586 80.0304 33.0477 58.6401C27.9242 46.4778 20.7656 16.783 32.4397 5.67832C46.2433 -7.45185 74.729 31.5065 81.7537 40.1981C86.3822 45.9249 101.766 62.8094 93.1702 71.205C84.5384 79.6359 67.33 47.8304 67.2297 41.2114C66.9787 24.6465 86.9992 22.6263 98.8446 29.1869C120.167 40.9964 116.726 64.4841 100.669 78.8385C96.8914 82.2151 90.3475 87.4398 84.726 85.9316C77.8475 84.0862 82.4032 75.5619 85.7393 72.8263C97.5958 63.104 119.771 58.3809 134.445 62.896C151.82 68.242 130.945 82.6687 122.623 85.3912C112.572 88.6798 84.4431 84.5183 107.627 78.6359C112.605 77.3727 144.488 72.6325 134.851 86.0667C125.875 98.5775 105.771 106.479 91.8191 111.467C74.6127 117.618 59.9281 117.25 58.5829 95.3891C57.5825 79.1331 75.3794 76.3802 86.9553 82.554C104.634 91.9828 83.2932 111.147 73.985 117.547C59.1285 127.76 40.6721 135.735 23.928 124.572C-5.63096 104.866 49.6011 39.9985 81.0105 73.5018C94.1666 87.5349 76.9633 102.923 63.5142 106.941C58.3966 108.469 25.6032 110.924 26.8328 102.009C28.6299 88.9807 41.6424 72.1126 53.0435 66.071C59.5266 62.6355 66.7913 63.1073 73.3095 66.2061C81.5414 70.1196 81.2808 72.7134 81.2808 79.8518" stroke="#6A30A5" stroke-width="5" stroke-linecap="square" shape-rendering="crispEdges"/>
</g>
<g filter="url(#filter1_d_1_7)">
<path d="M47.5906 70.9342C41.0308 70.9342 34.7891 79.1151 33.1704 84.9424C29.7276 97.3366 39.3585 106.729 47.5906 114.504C70.4644 136.107 105.5 135.721 148 131.705C202.5 126.555 252 92.5699 219.5 84.9424C198.5 80.0138 219 122.092 244 126.5C273.516 131.705 289 110.5 327.5 102.556C366 94.6111 421.509 147.956 441.26 115.637C446.029 107.834 437.517 102.016 430.239 102.556C415.772 103.627 399.766 115.755 402.12 131.705C407.469 167.962 493.661 146.057 512.743 137.576C529.478 130.138 546.993 116.746 565.788 115.534C585.581 114.257 604.5 132.424 632 128.5" stroke="#6A30A5" stroke-width="5" stroke-linecap="square" shape-rendering="crispEdges"/>
</g>
<defs>
<filter id="filter0_d_1_7" x="0.492737" y="0.502197" width="147.167" height="139.992" filterUnits="userSpaceOnUse" color-interpolation-filters="sRGB">
<feFlood flood-opacity="0" result="BackgroundImageFix"/>
<feColorMatrix in="SourceAlpha" type="matrix" values="0 0 0 0 0 0 0 0 0 0 0 0 0 0 0 0 0 0 127 0" result="hardAlpha"/>
<feOffset dy="4"/>
<feGaussianBlur stdDeviation="2"/>
<feComposite in2="hardAlpha" operator="out"/>
<feColorMatrix type="matrix" values="0 0 0 0 0 0 0 0 0 0 0 0 0 0 0 0 0 0 0.25 0"/>
<feBlend mode="normal" in2="BackgroundImageFix" result="effect1_dropShadow_1_7"/>
<feBlend mode="normal" in="SourceGraphic" in2="effect1_dropShadow_1_7" result="shape"/>
</filter>
<filter id="filter1_d_1_7" x="25.9523" y="68.4342" width="612.876" height="93.9788" filterUnits="userSpaceOnUse" color-interpolation-filters="sRGB">
<feFlood flood-opacity="0" result="BackgroundImageFix"/>
<feColorMatrix in="SourceAlpha" type="matrix" values="0 0 0 0 0 0 0 0 0 0 0 0 0 0 0 0 0 0 127 0" result="hardAlpha"/>
<feOffset dy="4"/>
<feGaussianBlur stdDeviation="2"/>
<feComposite in2="hardAlpha" operator="out"/>
<feColorMatrix type="matrix" values="0 0 0 0 0 0 0 0 0 0 0 0 0 0 0 0 0 0 0.25 0"/>
<feBlend mode="normal" in2="BackgroundImageFix" result="effect1_dropShadow_1_7"/>
<feBlend mode="normal" in="SourceGraphic" in2="effect1_dropShadow_1_7" result="shape"/>
</filter>
</defs>
</svg>
